<svg xmlns="http://www.w3.org/2000/svg" xmlns:xlink="http://www.w3.org/1999/xlink" viewBox="0 0 20 23" width="37"
    height="23" preserveAspectRatio="xMidYMid meet">
    <path fill-rule="evenodd" fill="rgb(255, 255, 255)"
        d="M17.493,13.788 L15.147,11.458 L17.523,9.098 L19.869,11.428 L17.493,13.788 ZM10.714,7.032 C10.326,6.647 9.698,6.647 9.310,7.031 L6.243,10.076 L3.503,7.354 L10.039,0.863 L16.521,7.300 L13.752,10.050 L10.714,7.032 ZM2.476,13.840 L0.130,11.510 L2.506,9.150 L4.852,11.480 L2.476,13.840 ZM7.638,11.485 L10.014,9.125 L12.361,11.455 L9.985,13.815 L7.638,11.485 ZM9.285,15.905 C9.654,16.288 10.320,16.290 10.689,15.907 L13.756,12.862 L16.496,15.584 L9.960,22.075 L3.479,15.638 L6.247,12.888 L9.285,15.905 Z" />
</svg>