<svg xmlns="http://www.w3.org/2000/svg" xmlns:xlink="http://www.w3.org/1999/xlink" width="37" height="22"
    viewBox="0 0 17 22" preserveAspectRatio="xMidYMid meet">
    <path fill-rule="evenodd" fill="rgb(255, 255, 255)"
        d="M16.181,9.169 C16.518,6.914 14.800,5.702 12.451,4.894 L13.213,1.840 L11.353,1.376 L10.611,4.350 C10.121,4.228 9.619,4.114 9.120,3.999 L9.867,1.006 L8.008,0.543 L7.245,3.596 C6.840,3.504 6.443,3.413 6.057,3.317 L6.059,3.307 L3.493,2.667 L2.998,4.653 C2.998,4.653 4.379,4.969 4.350,4.989 C5.103,5.176 5.239,5.675 5.217,6.070 L4.349,9.549 C4.401,9.563 4.468,9.581 4.542,9.611 C4.480,9.596 4.414,9.579 4.346,9.563 L3.129,14.436 C3.037,14.665 2.803,15.008 2.276,14.878 C2.295,14.905 0.924,14.541 0.924,14.541 L-0.000,16.669 L2.421,17.272 C2.872,17.385 3.313,17.503 3.748,17.614 L2.978,20.703 L4.836,21.167 L5.599,18.110 C6.107,18.248 6.599,18.375 7.082,18.495 L6.322,21.537 L8.183,21.1000 L8.952,18.916 C12.125,19.516 14.511,19.275 15.515,16.408 C16.324,14.098 15.475,12.767 13.806,11.899 C15.021,11.618 15.937,10.820 16.181,9.169 L16.181,9.169 L16.181,9.169 ZM11.930,15.125 C11.354,17.434 7.464,16.186 6.203,15.873 L7.225,11.780 C8.486,12.095 12.530,12.717 11.930,15.125 L11.930,15.125 ZM12.505,9.135 C11.980,11.235 8.743,10.168 7.692,9.907 L8.619,6.195 C9.669,6.457 13.051,6.945 12.505,9.135 L12.505,9.135 Z" />
</svg>