<svg xmlns="http://www.w3.org/2000/svg" xmlns:xlink="http://www.w3.org/1999/xlink" viewBox="0 0 20 16" width="37"
    height="16" preserveAspectRatio="xMidYMid meet">
    <path fill-rule="evenodd" fill="rgb(255, 255, 255)"
        d="M19.483,8.301 C18.855,11.705 17.282,14.080 14.933,15.169 C13.772,15.708 12.722,15.981 10.203,15.981 L3.298,15.981 L3.759,13.398 C3.783,13.398 9.924,13.400 9.946,13.400 C15.500,13.393 16.087,10.111 16.494,6.445 C16.476,3.614 14.765,2.836 11.797,2.791 L5.602,2.783 L6.062,0.200 L13.140,0.200 C15.842,0.200 17.659,0.808 18.696,2.058 C19.762,3.346 20.020,5.388 19.483,8.301 ZM9.352,7.697 C9.173,8.446 8.951,9.377 7.371,9.377 L0.291,9.377 C0.340,9.160 0.407,8.871 0.495,8.501 C0.681,7.733 0.885,6.795 2.483,6.791 L9.563,6.791 C9.516,7.008 9.439,7.331 9.352,7.697 Z" />
</svg>