<svg xmlns="http://www.w3.org/2000/svg" xmlns:xlink="http://www.w3.org/1999/xlink" viewBox="0 0 19 18" width="37"
    height="18" preserveAspectRatio="xMidYMid meet">
    <path fill-rule="evenodd" fill="rgb(255, 255, 255)"
        d="M9.340,0.098 L3.508,0.098 C3.282,0.098 3.100,0.280 3.100,0.505 L3.100,7.409 L1.032,7.409 C0.807,7.409 0.624,7.591 0.624,7.816 L0.624,10.282 C0.624,10.507 0.807,10.689 1.032,10.689 L3.100,10.689 L3.100,17.593 C3.100,17.818 3.282,18.000 3.508,18.000 L9.340,18.000 C14.292,18.000 18.321,13.985 18.321,9.050 C18.321,4.114 14.292,0.098 9.340,0.098 ZM9.340,14.720 L6.391,14.720 L6.391,10.689 L8.458,10.689 C8.683,10.689 8.866,10.507 8.866,10.282 L8.866,7.816 C8.866,7.591 8.683,7.409 8.458,7.409 L6.391,7.409 L6.391,3.378 L9.340,3.378 C16.889,3.690 16.887,14.410 9.340,14.720 Z" />
</svg>