<svg xmlns="http://www.w3.org/2000/svg" xmlns:xlink="http://www.w3.org/1999/xlink" viewBox="0 0 13 16" width="37"
    height="16" preserveAspectRatio="xMidYMid meet">
    <path fill-rule="evenodd" fill="rgb(255, 255, 255)"
        d="M6.764,8.865 L5.480,13.156 L12.351,13.156 C12.542,13.149 12.702,13.297 12.709,13.487 L12.709,13.487 L12.709,13.599 L12.112,15.641 C12.057,15.840 11.871,15.976 11.664,15.967 L1.148,15.967 L2.910,10.019 L0.939,10.611 L1.387,9.249 L3.358,8.657 L5.838,0.312 C5.894,0.114 6.079,-0.020 6.286,-0.013 L8.945,-0.013 C9.136,-0.020 9.297,0.128 9.304,0.317 L9.304,0.318 L9.304,0.430 L7.212,7.474 L9.184,6.882 L8.766,8.303 L6.764,8.865 Z" />
</svg>