<svg xmlns="http://www.w3.org/2000/svg" xmlns:xlink="http://www.w3.org/1999/xlink" viewBox="0 0 19 20" width="37"
    height="20" preserveAspectRatio="xMidYMid meet">
    <path fill-rule="evenodd" fill="rgb(255, 255, 255)"
        d="M18.270,6.377 C17.357,5.535 16.093,4.250 15.063,3.338 L15.003,3.296 C14.901,3.214 14.787,3.151 14.664,3.107 L14.664,3.107 C12.182,2.646 0.631,0.491 0.406,0.518 C0.343,0.527 0.282,0.550 0.229,0.585 L0.171,0.630 C0.100,0.703 0.046,0.790 0.013,0.886 L-0.002,0.926 L-0.002,1.141 L-0.002,1.174 C1.298,4.788 6.433,16.624 7.444,19.401 C7.505,19.590 7.620,19.948 7.837,19.967 L7.885,19.967 C8.001,19.967 8.494,19.316 8.494,19.316 C8.494,19.316 17.314,8.644 18.206,7.507 C18.322,7.367 18.424,7.217 18.511,7.058 C18.556,6.805 18.465,6.546 18.270,6.377 ZM10.757,7.620 L14.521,4.505 L16.729,6.535 L10.757,7.620 ZM9.295,7.416 L2.815,2.117 L13.300,4.046 L9.295,7.416 ZM9.880,8.805 L16.513,7.739 L8.930,16.855 L9.880,8.805 ZM1.935,2.646 L8.753,8.419 L7.767,16.861 L1.935,2.646 Z" />
</svg>