<svg xmlns="http://www.w3.org/2000/svg" xmlns:xlink="http://www.w3.org/1999/xlink" viewBox="0 0 18 16" height="37"
    width="16" preserveAspectRatio="xMidYMid meet">
    <path
        d="m10.85,8.9h0c-.1,0-.63.04-1.81.04-.94,0-1.61-.03-1.84-.04h0c-3.63-.16-6.34-.79-6.34-1.54s2.71-1.38,6.34-1.55v2.46c.24.02.92.06,1.86.06,1.13,0,1.69-.05,1.79-.06v-2.46c3.62.16,6.33.79,6.33,1.54s-2.7,1.38-6.33,1.54h0Zm0-3.34v-2.2h5.06V0H2.14v3.36h5.05v2.2c-4.11.19-7.2,1-7.2,1.97s3.09,1.78,7.2,1.97v7.06h3.65v-7.06c4.1-.19,7.18-1,7.18-1.97s-3.08-1.78-7.18-1.97h0Z"
        style="fill: #fff; fill-rule: evenodd;" />
</svg>