<svg xmlns="http://www.w3.org/2000/svg" xmlns:xlink="http://www.w3.org/1999/xlink" viewBox="0 0 18 16" width="37"
    height="16" preserveAspectRatio="xMidYMid meet">
    <path fill-rule="evenodd" fill="rgb(255, 255, 255)"
        d="M12.335,6.494 C11.360,7.470 10.076,7.955 8.792,7.955 C7.508,7.955 6.224,7.464 5.250,6.488 L0.155,1.386 C0.067,1.297 0.044,1.173 0.090,1.061 C0.137,0.949 0.242,0.878 0.359,0.878 L2.810,0.878 C2.886,0.878 2.962,0.907 3.014,0.960 L6.884,4.839 C7.934,5.891 9.644,5.891 10.701,4.839 L14.570,0.960 C14.622,0.907 14.698,0.878 14.774,0.878 L17.219,0.878 C17.336,0.878 17.447,0.949 17.488,1.061 C17.535,1.173 17.505,1.297 17.424,1.386 L12.335,6.494 ZM5.250,10.142 C7.205,8.179 10.380,8.185 12.335,10.142 L17.459,15.280 C17.540,15.362 17.570,15.493 17.523,15.605 C17.482,15.717 17.371,15.788 17.254,15.788 L14.809,15.788 C14.733,15.788 14.657,15.759 14.605,15.705 L10.701,11.791 C9.650,10.739 7.940,10.739 6.884,11.791 L2.979,15.705 C2.927,15.759 2.851,15.788 2.775,15.788 L0.330,15.788 C0.213,15.788 0.102,15.717 0.061,15.605 C0.015,15.493 0.038,15.369 0.126,15.280 L5.250,10.142 Z" />
</svg>