<?xml version="1.0" encoding="UTF-8"?>
<svg version="1.1" xmlns="http://www.w3.org/2000/svg" width="534" height="156">
<path d="M0 0 C0.33 -0.99 0.66 -1.98 1 -3 C2.32 -3 3.64 -3 5 -3 C6.0098473 -1.08850332 7.00754495 0.82941569 8 2.75 C8.556875 3.81734375 9.11375 4.8846875 9.6875 5.984375 C11 9 11 9 11 13 C9.35 13 7.7 13 6 13 C6.05220703 13.85271484 6.05220703 13.85271484 6.10546875 14.72265625 C6.39932322 23.10450518 3.82469939 28.43705287 -1.59765625 34.71484375 C-3 36 -3 36 -5 36 C-3.56825986 38.75303561 -2.12860078 41.50185432 -0.6875 44.25 C-0.28337891 45.02730469 0.12074219 45.80460937 0.53710938 46.60546875 C2.48298575 50.30737991 4.45452083 53.67193015 7 57 C7 57.66 7 58.32 7 59 C0.4 59 -6.2 59 -13 59 C-17.125 51.125 -17.125 51.125 -18.38330078 48.64892578 C-18.73376465 48.0042334 -19.08422852 47.35954102 -19.4453125 46.6953125 C-19.79094238 46.03547363 -20.13657227 45.37563477 -20.49267578 44.69580078 C-22.34154721 42.33172878 -22.34154721 42.33172878 -28 41 C-28 46.94 -28 52.88 -28 59 C-33.61 59 -39.22 59 -45 59 C-45 37.88 -45 16.76 -45 -5 C-11.89655172 -7.75862069 -11.89655172 -7.75862069 0 0 Z M-2 2 C-1 5 -1 5 -1 5 Z M-3 5 C-2 7 -2 7 -2 7 Z M-4 7 C-3 9 -3 9 -3 9 Z M-29 11 C-29 15.62 -29 20.24 -29 25 C-26.9375 25.0825 -24.875 25.165 -22.75 25.25 C-21.58984375 25.29640625 -20.4296875 25.3428125 -19.234375 25.390625 C-15.9333543 25.26969226 -15.9333543 25.26969226 -13.609375 23.171875 C-11.77227735 21.03712971 -11.77227735 21.03712971 -11.5 18 C-12.12416464 14.25501218 -13.00685203 13.28887786 -16 11 C-19.27400478 10.51736211 -19.27400478 10.51736211 -22.75 10.75 C-25.84375 10.87375 -25.84375 10.87375 -29 11 Z M-6 11 C-6.33 11.66 -6.66 12.32 -7 13 C-6.34 13 -5.68 13 -5 13 C-5.33 12.34 -5.66 11.68 -6 11 Z " fill="#B9923D" transform="translate(85,27)"/>
<path d="M0 0 C17.18347358 -2.07429074 17.18347358 -2.07429074 21.73242188 1.27587891 C24.69466648 4.75809198 26.43170184 8.7398468 28 13 C29.1254191 11.39612733 30.25031972 9.79189084 31.375 8.1875 C32.00148438 7.29417969 32.62796875 6.40085937 33.2734375 5.48046875 C34.53550239 3.66732122 35.77458808 1.83811789 37 0 C38.97119141 -0.34057617 38.97119141 -0.34057617 41.3515625 -0.29296875 C42.62773437 -0.2784668 42.62773437 -0.2784668 43.9296875 -0.26367188 C44.81914062 -0.23853516 45.70859375 -0.21339844 46.625 -0.1875 C47.97078125 -0.16719727 47.97078125 -0.16719727 49.34375 -0.14648438 C51.56309789 -0.11106925 53.78125188 -0.06168461 56 0 C54.61465681 2.90423804 53.04325792 5.552353 51.25 8.22265625 C50.7240625 9.00833984 50.198125 9.79402344 49.65625 10.60351562 C49.1096875 11.41498047 48.563125 12.22644531 48 13.0625 C47.18015625 14.28549805 47.18015625 14.28549805 46.34375 15.53320312 C45.32917653 17.04635988 44.31365523 18.55888186 43.296875 20.07055664 C40.77383058 23.35672032 40.77383058 23.35672032 40.1171875 27.265625 C41.25640264 30.79416747 43.08621833 33.68911135 45.125 36.75 C45.52517334 37.36399658 45.92534668 37.97799316 46.33764648 38.6105957 C49.24735605 43.01996484 52.37771523 47.18944459 55.78515625 51.23046875 C57 53 57 53 57 56 C40.07603005 57.52163566 40.07603005 57.52163566 35.25 53.984375 C33.44040624 51.37918399 32.15086354 48.95183319 31 46 C30.525625 44.80375 30.05125 43.6075 29.5625 42.375 C29.376875 41.59125 29.19125 40.8075 29 40 C28.34 40 27.68 40 27 40 C26.814375 40.78375 26.62875 41.5675 26.4375 42.375 C25.963125 43.57125 25.48875 44.7675 25 46 C24.66226562 46.86625 24.32453125 47.7325 23.9765625 48.625 C22.2700784 51.9436873 21.03300911 53.77694218 18 56 C11.76832208 57.27415557 5.28285182 56.56489177 -1 56 C4.43763922 44.9705134 4.43763922 44.9705134 8.94921875 43.26171875 C10.875 43 10.875 43 14 43 C10.04 43 6.08 43 2 43 C3.52096628 39.19758429 5.14010268 35.63525385 7 32 C7.99 32 8.98 32 10 32 C10.66 32.99 11.32 33.98 12 35 C13.65 32.36 15.3 29.72 17 27 C12.9690579 19.78209429 8.69307267 12.96806451 3.69921875 6.375 C2.2081738 4.29096476 1.10892041 2.29720088 0 0 Z " fill="#F7DB93" transform="translate(425,36)"/>
<path d="M0 0 C0 20.13 0 40.26 0 61 C-3.3 61 -6.6 61 -10 61 C-10.66 60.01 -11.32 59.02 -12 58 C-12.9075 58.66 -13.815 59.32 -14.75 60 C-19.94451563 62.92322945 -25.21154254 62.97727204 -31 62 C-36.04334596 59.94973769 -39.79399294 57.00484098 -42.5 52.25 C-45.59040502 44.75897216 -45.60459952 37.7997839 -42.9375 30.19140625 C-40.67865905 24.91136553 -37.47602725 22.07637906 -32.34375 19.73046875 C-27.94314743 18.35894762 -23.51958905 18.1451125 -19 19 C-16.69 20.32 -14.38 21.64 -12 23 C-12 15.74 -12 8.48 -12 1 C-8 0 -8 0 0 0 Z M-32.3125 33.125 C-34.68138767 37.1608827 -35.02034199 40.43572207 -34 45 C-31.68800529 49.39524082 -29.22785243 51.60533315 -24.5 53.125 C-20.43904045 52.97996573 -18.35149117 52.28510762 -15 50 C-11.79821691 46.3713125 -11.47706744 42.89247895 -11.6484375 38.21875 C-12.20716163 34.69257993 -13.63630184 32.61923309 -16 30 C-22.63195813 26.35242303 -27.07499489 28.31215747 -32.3125 33.125 Z " fill="#FFFFFF" transform="translate(235,22)"/>
<path d="M0 0 C1.5859375 1.0703125 1.5859375 1.0703125 3.9609375 3.1328125 C4.6209375 3.4628125 5.2809375 3.7928125 5.9609375 4.1328125 C6.2909375 2.8128125 6.6209375 1.4928125 6.9609375 0.1328125 C9.9309375 0.1328125 12.9009375 0.1328125 15.9609375 0.1328125 C17.48894262 3.18882274 16.45392567 5.79027226 15.9609375 9.1328125 C15.8830607 11.69303312 15.85299457 14.25502213 15.86328125 16.81640625 C15.86540367 17.86695946 15.86540367 17.86695946 15.86756897 18.93873596 C15.87311273 21.14930716 15.88565424 23.35977254 15.8984375 25.5703125 C15.90345979 27.08007665 15.90802141 28.58984241 15.91210938 30.09960938 C15.92306363 33.77737743 15.9402886 37.45508462 15.9609375 41.1328125 C12.6609375 41.1328125 9.3609375 41.1328125 5.9609375 41.1328125 C5.3009375 39.8128125 4.6409375 38.4928125 3.9609375 37.1328125 C3.49945313 37.49375 3.03796875 37.8546875 2.5625 38.2265625 C-2.96228894 42.15724237 -7.32518972 43.12913763 -14.0390625 42.1328125 C-19.88478168 40.29886138 -23.64573266 36.08886003 -27.0390625 31.1328125 C-29.76106745 25.37738678 -29.28186077 19.24409326 -28.0390625 13.1328125 C-25.87015103 7.38519711 -22.4513537 3.83906725 -17.4765625 0.3203125 C-12.02039857 -1.56454413 -5.45029968 -2.31794354 0 0 Z M-15.8515625 12.8203125 C-17.57025699 16.16724388 -18.14685404 19.41041123 -18.0390625 23.1328125 C-16.7536058 27.0647977 -15.38426343 28.82683895 -12.2890625 31.5703125 C-8.22657002 33.52343388 -6.33746208 33.38325601 -2.0390625 32.1328125 C0.88340619 30.31438754 2.54553474 28.81256246 4.3359375 25.8828125 C5.19884351 22.08602606 5.01521642 18.87967428 3.9609375 15.1328125 C1.80293633 11.70977617 -0.17387391 9.46147108 -4.0390625 8.1328125 C-9.01960755 8.1328125 -12.18713562 9.40860471 -15.8515625 12.8203125 Z " fill="#FFFFFF" transform="translate(124.0390625,41.8671875)"/>
<path d="M0 0 C5.83548664 6.0178456 5.35185908 14.68176031 5.26367188 22.51757812 C5.23861752 23.88672494 5.21322284 25.25586558 5.1875 26.625 C5.17242111 28.02928247 5.15873839 29.43358066 5.14648438 30.83789062 C5.11134406 34.24650115 5.06214123 37.6542927 5 41.0625 C1.37 41.0625 -2.26 41.0625 -6 41.0625 C-6.0093457 40.23524414 -6.01869141 39.40798828 -6.02832031 38.55566406 C-6.08200319 34.80733585 -6.1656571 31.06025838 -6.25 27.3125 C-6.26417969 26.01054688 -6.27835938 24.70859375 -6.29296875 23.3671875 C-6.32519531 22.11679688 -6.35742188 20.86640625 -6.390625 19.578125 C-6.41157227 18.42602539 -6.43251953 17.27392578 -6.45410156 16.08691406 C-7.10707442 12.46928091 -8.07217412 11.23071698 -11 9.0625 C-15.37680292 9.15562347 -18.56757017 10.37446971 -22 13.0625 C-22.78182537 16.04611467 -22.78182537 16.04611467 -22.70703125 19.48046875 C-22.73603516 20.73408203 -22.76503906 21.98769531 -22.79492188 23.27929688 C-22.80072266 24.58962891 -22.80652344 25.89996094 -22.8125 27.25 C-22.83564287 28.58532731 -22.86100781 29.92061808 -22.88867188 31.25585938 C-22.94768232 34.52503823 -22.98386229 37.79287372 -23 41.0625 C-26.63 41.0625 -30.26 41.0625 -34 41.0625 C-34.02505615 40.09948975 -34.0501123 39.13647949 -34.07592773 38.14428711 C-34.17064271 34.54537383 -34.27070252 30.946625 -34.37231445 27.34790039 C-34.41542245 25.79520536 -34.45711268 24.24247026 -34.49731445 22.68969727 C-34.5556069 20.44795697 -34.61912578 18.20641396 -34.68359375 15.96484375 C-34.70030624 15.27913803 -34.71701874 14.59343231 -34.73423767 13.88694763 C-34.8658112 9.53206636 -35.31414284 5.35581937 -36 1.0625 C-30.06 0.5675 -30.06 0.5675 -24 0.0625 C-23.67 1.3825 -23.34 2.7025 -23 4.0625 C-22.47792969 3.7015625 -21.95585937 3.340625 -21.41796875 2.96875 C-14.40257085 -1.45426794 -7.99635714 -2.49886161 0 0 Z " fill="#FFFFFF" transform="translate(181,41.9375)"/>
<path d="M0 0 C5.55335343 3.29597885 9.53578992 7.44176379 11.859375 13.52734375 C13.19141148 20.42971462 12.80495707 25.87874347 9.546875 32.08984375 C6.38070366 36.76905272 3.04546272 40.39028027 -2.453125 42.08984375 C-9.65405469 42.92759897 -15.84571669 43.04973269 -21.8046875 38.57421875 C-27.5589251 33.39267779 -30.03959488 28.55596908 -30.765625 20.71484375 C-30.16927585 13.79719358 -28.80212687 8.88755306 -23.515625 4.15234375 C-16.66056873 -1.43472523 -8.57748899 -3.18241232 0 0 Z M-17.453125 12.08984375 C-19.86255967 15.50968651 -20.70031611 18.04119431 -20.390625 22.15234375 C-19.56996636 26.8176097 -17.39997989 29.61291935 -13.640625 32.46484375 C-10.27640348 33.4260499 -7.82609781 32.91829321 -4.453125 32.08984375 C-1.53065631 30.27141879 0.13147224 28.76959371 1.921875 25.83984375 C2.78478101 22.04305731 2.60115392 18.83670553 1.546875 15.08984375 C-0.60616509 11.67467671 -2.58108721 9.38052301 -6.453125 8.08984375 C-11.23025586 7.33555993 -13.80866648 9.07920411 -17.453125 12.08984375 Z " fill="#FFFFFF" transform="translate(269.453125,41.91015625)"/>
<path d="M0 0 C3.3 0 6.6 0 10 0 C9.98428955 1.20329956 9.98428955 1.20329956 9.96826172 2.4309082 C9.92674233 6.05807372 9.90068657 9.68518928 9.875 13.3125 C9.85824219 14.57513672 9.84148437 15.83777344 9.82421875 17.13867188 C9.81455078 18.95141602 9.81455078 18.95141602 9.8046875 20.80078125 C9.78897705 22.47394409 9.78897705 22.47394409 9.77294922 24.1809082 C9.78677347 27.20678201 9.78677347 27.20678201 12 30 C16.21475664 31.21579518 18.28563532 31.32348589 22.3125 29.5 C27.29367411 24.86634966 27.24686958 18.74504508 27.53125 12.27539062 C27.57765625 10.93250977 27.57765625 10.93250977 27.625 9.5625 C27.66367187 8.64017578 27.70234375 7.71785156 27.7421875 6.76757812 C27.83568217 4.51201932 27.91889361 2.25603824 28 0 C31.63 0 35.26 0 39 0 C39.02464705 5.67830078 39.04283462 11.35657069 39.05493164 17.03491211 C39.05997256 18.96818585 39.06680519 20.90145576 39.07543945 22.8347168 C39.08751565 25.60726872 39.09323057 28.37977041 39.09765625 31.15234375 C39.10281754 32.02213364 39.10797882 32.89192352 39.11329651 33.78807068 C39.11349185 35.85905814 39.06208168 37.92994324 39 40 C38 41 38 41 35.71484375 41.09765625 C34.79832031 41.08605469 33.88179688 41.07445312 32.9375 41.0625 C32.01839844 41.05347656 31.09929687 41.04445312 30.15234375 41.03515625 C29.44207031 41.02355469 28.73179687 41.01195312 28 41 C27.34 39.35 26.68 37.7 26 36 C25.32517578 36.54140625 25.32517578 36.54140625 24.63671875 37.09375 C18.87948956 41.24726204 14.00526569 42.01174952 7 41 C3.22708493 39.42795206 1.11382161 37.48780566 -1 34 C-2.62866558 28.86532528 -2.18433191 23.45373374 -2.1875 18.125 C-2.19974609 17.04863281 -2.21199219 15.97226562 -2.22460938 14.86328125 C-2.23447749 9.52792066 -2.19275727 4.97487222 0 0 Z " fill="#FFFFFF" transform="translate(289,42)"/>
<path d="M0 0 C0.92776245 -0.00622879 1.8555249 -0.01245758 2.81140137 -0.01887512 C3.80627563 -0.00966537 4.8011499 -0.00045563 5.82617188 0.0090332 C6.8542395 0.0085347 7.88230713 0.00803619 8.94152832 0.00752258 C11.11354507 0.00986143 13.28556461 0.01957877 15.45751953 0.03613281 C18.78247306 0.05972612 22.10662464 0.05669197 25.43164062 0.05004883 C27.54232249 0.0556257 29.65300098 0.06273564 31.76367188 0.0715332 C32.75854614 0.0706218 33.75342041 0.06971039 34.77844238 0.06877136 C35.70620483 0.07830338 36.63396729 0.08783539 37.58984375 0.09765625 C38.40384644 0.10226364 39.21784912 0.10687103 40.05651855 0.11161804 C42.55246797 0.40230965 44.15840752 1.06718746 46.29492188 2.37231445 C48.18378441 4.89079783 48.30208026 6.20051313 48.16992188 9.37231445 C47.09047705 13.07326814 46.46889689 14.1500905 43.29492188 16.37231445 C39.63029926 16.97295499 35.99711784 16.90837357 32.29101562 16.8684082 C30.67876854 16.87059105 30.67876854 16.87059105 29.03395081 16.87281799 C26.76357307 16.87115903 24.49318408 16.85959817 22.22290039 16.83886719 C18.74186633 16.80989306 15.26235294 16.81826283 11.78125 16.83129883 C9.57616445 16.82506211 7.37108372 16.81667169 5.16601562 16.8059082 C4.12223251 16.80884384 3.0784494 16.81177948 2.0030365 16.81480408 C1.03515701 16.8021199 0.06727753 16.78943573 -0.92993164 16.77636719 C-1.78168472 16.7709642 -2.63343781 16.76556122 -3.51100159 16.75999451 C-6.19080788 16.28648894 -7.07936209 15.52006218 -8.70507812 13.37231445 C-9.13867188 10.99731445 -9.13867188 10.99731445 -9.14257812 8.37231445 C-9.16191406 7.50606445 -9.18125 6.63981445 -9.20117188 5.74731445 C-8.70507812 3.37231445 -8.70507812 3.37231445 -6.96813965 1.74714661 C-4.3816426 0.17582419 -2.99969911 -0.00231951 0 0 Z " fill="#F6C34E" transform="translate(435.705078125,97.627685546875)"/>
<path d="M0 0 C0.92776245 -0.00622879 1.8555249 -0.01245758 2.81140137 -0.01887512 C3.80627563 -0.00966537 4.8011499 -0.00045563 5.82617188 0.0090332 C6.8542395 0.0085347 7.88230713 0.00803619 8.94152832 0.00752258 C11.11354507 0.00986143 13.28556461 0.01957877 15.45751953 0.03613281 C18.78247306 0.05972612 22.10662464 0.05669197 25.43164062 0.05004883 C27.54232249 0.0556257 29.65300098 0.06273564 31.76367188 0.0715332 C32.75854614 0.0706218 33.75342041 0.06971039 34.77844238 0.06877136 C35.70620483 0.07830338 36.63396729 0.08783539 37.58984375 0.09765625 C38.40384644 0.10226364 39.21784912 0.10687103 40.05651855 0.11161804 C42.55246797 0.40230965 44.15840752 1.06718746 46.29492188 2.37231445 C48.18378441 4.89079783 48.30208026 6.20051313 48.16992188 9.37231445 C47.09047705 13.07326814 46.46889689 14.1500905 43.29492188 16.37231445 C39.63029926 16.97295499 35.99711784 16.90837357 32.29101562 16.8684082 C30.67876854 16.87059105 30.67876854 16.87059105 29.03395081 16.87281799 C26.76357307 16.87115903 24.49318408 16.85959817 22.22290039 16.83886719 C18.74186633 16.80989306 15.26235294 16.81826283 11.78125 16.83129883 C9.57616445 16.82506211 7.37108372 16.81667169 5.16601562 16.8059082 C4.12223251 16.80884384 3.0784494 16.81177948 2.0030365 16.81480408 C1.03515701 16.8021199 0.06727753 16.78943573 -0.92993164 16.77636719 C-1.78168472 16.7709642 -2.63343781 16.76556122 -3.51100159 16.75999451 C-6.19080788 16.28648894 -7.07936209 15.52006218 -8.70507812 13.37231445 C-9.13867188 10.99731445 -9.13867188 10.99731445 -9.14257812 8.37231445 C-9.16191406 7.50606445 -9.18125 6.63981445 -9.20117188 5.74731445 C-8.70507812 3.37231445 -8.70507812 3.37231445 -6.96813965 1.74714661 C-4.3816426 0.17582419 -2.99969911 -0.00231951 0 0 Z " fill="#F6C34E" transform="translate(304.705078125,97.627685546875)"/>
<path d="M0 0 C0.92776245 -0.00622879 1.8555249 -0.01245758 2.81140137 -0.01887512 C3.80627563 -0.00966537 4.8011499 -0.00045563 5.82617188 0.0090332 C6.8542395 0.0085347 7.88230713 0.00803619 8.94152832 0.00752258 C11.11354507 0.00986143 13.28556461 0.01957877 15.45751953 0.03613281 C18.78247306 0.05972612 22.10662464 0.05669197 25.43164062 0.05004883 C27.54232249 0.0556257 29.65300098 0.06273564 31.76367188 0.0715332 C32.75854614 0.0706218 33.75342041 0.06971039 34.77844238 0.06877136 C35.70620483 0.07830338 36.63396729 0.08783539 37.58984375 0.09765625 C38.40384644 0.10226364 39.21784912 0.10687103 40.05651855 0.11161804 C42.55246797 0.40230965 44.15840752 1.06718746 46.29492188 2.37231445 C48.18378441 4.89079783 48.30208026 6.20051313 48.16992188 9.37231445 C47.09047705 13.07326814 46.46889689 14.1500905 43.29492188 16.37231445 C39.63029926 16.97295499 35.99711784 16.90837357 32.29101562 16.8684082 C30.67876854 16.87059105 30.67876854 16.87059105 29.03395081 16.87281799 C26.76357307 16.87115903 24.49318408 16.85959817 22.22290039 16.83886719 C18.74186633 16.80989306 15.26235294 16.81826283 11.78125 16.83129883 C9.57616445 16.82506211 7.37108372 16.81667169 5.16601562 16.8059082 C4.12223251 16.80884384 3.0784494 16.81177948 2.0030365 16.81480408 C1.03515701 16.8021199 0.06727753 16.78943573 -0.92993164 16.77636719 C-1.78168472 16.7709642 -2.63343781 16.76556122 -3.51100159 16.75999451 C-6.19080788 16.28648894 -7.07936209 15.52006218 -8.70507812 13.37231445 C-9.13867188 10.99731445 -9.13867188 10.99731445 -9.14257812 8.37231445 C-9.16191406 7.50606445 -9.18125 6.63981445 -9.20117188 5.74731445 C-8.70507812 3.37231445 -8.70507812 3.37231445 -6.96813965 1.74714661 C-4.3816426 0.17582419 -2.99969911 -0.00231951 0 0 Z " fill="#F6C34E" transform="translate(171.705078125,97.627685546875)"/>
<path d="M0 0 C0.92776245 -0.00622879 1.8555249 -0.01245758 2.81140137 -0.01887512 C3.80627563 -0.00966537 4.8011499 -0.00045563 5.82617188 0.0090332 C6.8542395 0.0085347 7.88230713 0.00803619 8.94152832 0.00752258 C11.11354507 0.00986143 13.28556461 0.01957877 15.45751953 0.03613281 C18.78247306 0.05972612 22.10662464 0.05669197 25.43164062 0.05004883 C27.54232249 0.0556257 29.65300098 0.06273564 31.76367188 0.0715332 C32.75854614 0.0706218 33.75342041 0.06971039 34.77844238 0.06877136 C35.70620483 0.07830338 36.63396729 0.08783539 37.58984375 0.09765625 C38.40384644 0.10226364 39.21784912 0.10687103 40.05651855 0.11161804 C42.55246797 0.40230965 44.15840752 1.06718746 46.29492188 2.37231445 C48.18378441 4.89079783 48.30208026 6.20051313 48.16992188 9.37231445 C47.09047705 13.07326814 46.46889689 14.1500905 43.29492188 16.37231445 C39.63029926 16.97295499 35.99711784 16.90837357 32.29101562 16.8684082 C30.67876854 16.87059105 30.67876854 16.87059105 29.03395081 16.87281799 C26.76357307 16.87115903 24.49318408 16.85959817 22.22290039 16.83886719 C18.74186633 16.80989306 15.26235294 16.81826283 11.78125 16.83129883 C9.57616445 16.82506211 7.37108372 16.81667169 5.16601562 16.8059082 C4.12223251 16.80884384 3.0784494 16.81177948 2.0030365 16.81480408 C1.03515701 16.8021199 0.06727753 16.78943573 -0.92993164 16.77636719 C-1.78168472 16.7709642 -2.63343781 16.76556122 -3.51100159 16.75999451 C-6.19080788 16.28648894 -7.07936209 15.52006218 -8.70507812 13.37231445 C-9.13867188 10.99731445 -9.13867188 10.99731445 -9.14257812 8.37231445 C-9.16191406 7.50606445 -9.18125 6.63981445 -9.20117188 5.74731445 C-8.70507812 3.37231445 -8.70507812 3.37231445 -6.96813965 1.74714661 C-4.3816426 0.17582419 -2.99969911 -0.00231951 0 0 Z " fill="#FDFDFD" transform="translate(370.705078125,97.627685546875)"/>
<path d="M0 0 C0.92776245 -0.00622879 1.8555249 -0.01245758 2.81140137 -0.01887512 C3.80627563 -0.00966537 4.8011499 -0.00045563 5.82617188 0.0090332 C6.8542395 0.0085347 7.88230713 0.00803619 8.94152832 0.00752258 C11.11354507 0.00986143 13.28556461 0.01957877 15.45751953 0.03613281 C18.78247306 0.05972612 22.10662464 0.05669197 25.43164062 0.05004883 C27.54232249 0.0556257 29.65300098 0.06273564 31.76367188 0.0715332 C32.75854614 0.0706218 33.75342041 0.06971039 34.77844238 0.06877136 C35.70620483 0.07830338 36.63396729 0.08783539 37.58984375 0.09765625 C38.40384644 0.10226364 39.21784912 0.10687103 40.05651855 0.11161804 C42.55246797 0.40230965 44.15840752 1.06718746 46.29492188 2.37231445 C48.18378441 4.89079783 48.30208026 6.20051313 48.16992188 9.37231445 C47.09047705 13.07326814 46.46889689 14.1500905 43.29492188 16.37231445 C39.63029926 16.97295499 35.99711784 16.90837357 32.29101562 16.8684082 C30.67876854 16.87059105 30.67876854 16.87059105 29.03395081 16.87281799 C26.76357307 16.87115903 24.49318408 16.85959817 22.22290039 16.83886719 C18.74186633 16.80989306 15.26235294 16.81826283 11.78125 16.83129883 C9.57616445 16.82506211 7.37108372 16.81667169 5.16601562 16.8059082 C4.12223251 16.80884384 3.0784494 16.81177948 2.0030365 16.81480408 C1.03515701 16.8021199 0.06727753 16.78943573 -0.92993164 16.77636719 C-1.78168472 16.7709642 -2.63343781 16.76556122 -3.51100159 16.75999451 C-6.19080788 16.28648894 -7.07936209 15.52006218 -8.70507812 13.37231445 C-9.13867188 10.99731445 -9.13867188 10.99731445 -9.14257812 8.37231445 C-9.16191406 7.50606445 -9.18125 6.63981445 -9.20117188 5.74731445 C-8.70507812 3.37231445 -8.70507812 3.37231445 -6.96813965 1.74714661 C-4.3816426 0.17582419 -2.99969911 -0.00231951 0 0 Z " fill="#FDFDFD" transform="translate(237.705078125,97.627685546875)"/>
<path d="M0 0 C0 4.29 0 8.58 0 13 C1.64548828 12.7834375 1.64548828 12.7834375 3.32421875 12.5625 C4.77862452 12.37483474 6.23305281 12.18734394 7.6875 12 C8.40873047 11.90460937 9.12996094 11.80921875 9.87304688 11.7109375 C13.60992871 11.23316265 17.22291531 10.88080206 21 11 C21.33 8.36 21.66 5.72 22 3 C25.21700577 7.19609448 26.07272304 9.13768827 25.88500977 14.51074219 C25.65224231 21.49846826 25.8934823 26.17139423 30 32 C29.75 34.4375 29.75 34.4375 29 36 C28.01 35.67 27.02 35.34 26 35 C25.34 38.3 24.68 41.6 24 45 C22.68 45 21.36 45 20 45 C19.7525 44.05125 19.505 43.1025 19.25 42.125 C18.36332397 38.90484372 18.36332397 38.90484372 16 38 C14 37 14 37 12.8125 34.125 C12.544375 33.09375 12.27625 32.0625 12 31 C11.690625 29.824375 11.690625 29.824375 11.375 28.625 C11.25125 28.08875 11.1275 27.5525 11 27 C8.36 26.67 5.72 26.34 3 26 C3 32.27 3 38.54 3 45 C1.68 45 0.36 45 -1 45 C-1 34.77 -1 24.54 -1 14 C-7.49223741 16.6370653 -7.49223741 16.6370653 -12 21 C-11.3638676 15.64771359 -7.52908597 0 0 0 Z " fill="#F8D276" transform="translate(53,40)"/>
<path d="M0 0 C4.58477988 0.44948822 8.6789261 1.4191193 13 3 C13.33 2.01 13.66 1.02 14 0 C15.32 0 16.64 0 18 0 C19.0098473 1.91149668 20.00754495 3.82941569 21 5.75 C21.556875 6.81734375 22.11375 7.8846875 22.6875 8.984375 C24 12 24 12 24 16 C22.35 16 20.7 16 19 16 C19.05220703 16.85271484 19.05220703 16.85271484 19.10546875 17.72265625 C19.39932322 26.10450518 16.82469939 31.43705287 11.40234375 37.71484375 C10 39 10 39 8 39 C9.43174014 41.75303561 10.87139922 44.50185432 12.3125 47.25 C12.71662109 48.02730469 13.12074219 48.80460937 13.53710938 49.60546875 C15.48298575 53.30737991 17.45452083 56.67193015 20 60 C20 60.66 20 61.32 20 62 C13.4 62 6.8 62 0 62 C-1.65 59.03 -3.3 56.06 -5 53 C-2.5625 53.625 -2.5625 53.625 0 55 C0.8125 58.125 0.8125 58.125 1 61 C2.32 61 3.64 61 5 61 C4.95875 59.906875 4.9175 58.81375 4.875 57.6875 C5 54 5 54 7 51 C7.99 51 8.98 51 10 51 C9.5861126 48.10278817 9.17054428 46.24066655 7.4609375 43.828125 C5.56238869 40.15285939 5.74226579 36.95637783 5.9375 32.9375 C6.32917798 26.68207458 6.32917798 26.68207458 4 21 C3.67 23.64 3.34 26.28 3 29 C2.67 28.34 2.34 27.68 2 27 C1.01 26.67 0.02 26.34 -1 26 C-0.67 25.34 -0.34 24.68 0 24 C0.14375422 20.62177584 0.07536348 18.22609045 -1 15 C-1.66 14.67 -2.32 14.34 -3 14 C-2.34 14 -1.68 14 -1 14 C-1.01160156 13.07316406 -1.02320312 12.14632812 -1.03515625 11.19140625 C-1.04417969 9.99386719 -1.05320312 8.79632813 -1.0625 7.5625 C-1.07410156 6.36753906 -1.08570312 5.17257813 -1.09765625 3.94140625 C-1 1 -1 1 0 0 Z M11 5 C12 8 12 8 12 8 Z M10 8 C11 10 11 10 11 10 Z M9 10 C10 12 10 12 10 12 Z M7 14 C6.67 14.66 6.34 15.32 6 16 C6.66 16 7.32 16 8 16 C7.67 15.34 7.34 14.68 7 14 Z " fill="#CAA715" transform="translate(72,24)"/>
<path d="M0 0 C6.6 0 13.2 0 20 0 C19.67 0.66 19.34 1.32 19 2 C18.67 2 18.34 2 18 2 C15.35255686 14.09618933 15.35255686 14.09618933 18.4375 25.5625 C19.5785673 27.07777413 20.76829293 28.55743702 22 30 C23.29198553 31.7080922 24.5836612 33.41641881 25.875 35.125 C26.91104629 36.42117912 27.95058435 37.71462106 29 39 C28.01 39.495 28.01 39.495 27 40 C26.773125 40.804375 26.54625 41.60875 26.3125 42.4375 C22.54240066 52.67062679 22.54240066 52.67062679 18 56 C11.76832208 57.27415557 5.28285182 56.56489177 -1 56 C4.43763922 44.9705134 4.43763922 44.9705134 8.94921875 43.26171875 C10.875 43 10.875 43 14 43 C10.04 43 6.08 43 2 43 C3.52096628 39.19758429 5.14010268 35.63525385 7 32 C7.99 32 8.98 32 10 32 C10.66 32.99 11.32 33.98 12 35 C13.65 32.36 15.3 29.72 17 27 C12.9690579 19.78209429 8.69307267 12.96806451 3.69921875 6.375 C2 4 2 4 0 0 Z " fill="#D19C31" transform="translate(425,36)"/>
<path d="M0 0 C0.66 1.32 1.32 2.64 2 4 C2.639375 3.505 3.27875 3.01 3.9375 2.5 C8.17342901 0.42525926 11.3114322 0.79006413 16 1 C16 3.97 16 6.94 16 10 C13.15446866 10.71138284 10.68800243 11.19788342 7.8125 11.5 C4.21945389 11.57749438 4.21945389 11.57749438 3 13 C2.84141158 15.14386657 2.74870702 17.29266838 2.68359375 19.44140625 C2.64169922 20.74658203 2.59980469 22.05175781 2.55664062 23.39648438 C2.51682392 24.7851533 2.47711175 26.17382522 2.4375 27.5625 C2.39432011 28.95509183 2.350706 30.34767028 2.30664062 31.74023438 C2.20014124 35.16004801 2.09813077 38.57993763 2 42 C-1.63 42 -5.26 42 -9 42 C-9.03758423 40.51004517 -9.03758423 40.51004517 -9.07592773 38.98999023 C-9.17061449 35.27926326 -9.27068163 31.56869698 -9.37231445 27.8581543 C-9.41543296 26.25695576 -9.45712264 24.65571804 -9.49731445 23.05444336 C-9.55558091 20.74320709 -9.61910785 18.43216387 -9.68359375 16.12109375 C-9.70030624 15.41351425 -9.71701874 14.70593475 -9.73423767 13.97691345 C-9.86348944 9.56913783 -10.30278719 5.34455385 -11 1 C-7.32589215 -0.17571451 -3.83070817 -0.07366746 0 0 Z " fill="#FFFFFF" transform="translate(344,41)"/>
<path d="M0 0 C1.43088528 2.86177057 0.59991697 4.93375773 0 8 C0.763125 7.505 1.52625 7.01 2.3125 6.5 C5 5 5 5 8 5 C8.33 9.95 8.66 14.9 9 20 C7.68 20 6.36 20 5 20 C4.67 16.04 4.34 12.08 4 8 C-1.9737505 13.9737505 -4.40222661 18.72201214 -6 27 C-5.278125 26.195625 -4.55625 25.39125 -3.8125 24.5625 C-1 22 -1 22 4 21 C4 31.23 4 41.46 4 52 C5.32 52 6.64 52 8 52 C8 45.73 8 39.46 8 33 C14 33 14 33 15.75 34.3125 C16.88171799 35.84031928 17.94533748 37.41800622 19 39 C18.625 41.1875 18.625 41.1875 18 43 C17.12109375 41.20963542 16.2421875 39.41927083 15.36328125 37.62890625 C13.80171021 35.41772076 13.80171021 35.41772076 9 35 C9 40.94 9 46.88 9 53 C3.39 53 -2.22 53 -8 53 C-8.09248867 47.93110694 -8.17191869 42.86521132 -8.21972656 37.79614258 C-8.23968148 36.07663991 -8.26685558 34.35720367 -8.30175781 32.63793945 C-8.5255933 21.31778889 -8.54345985 11.43656812 -1.75 1.8125 C-1.1725 1.214375 -0.595 0.61625 0 0 Z " fill="#79461D" transform="translate(48,33)"/>
<path d="M0 0 C0.8510582 -0.00953201 1.70211639 -0.01906403 2.57896423 -0.02888489 C3.9602224 -0.02751778 3.9602224 -0.02751778 5.36938477 -0.02612305 C6.31386978 -0.03040817 7.2583548 -0.0346933 8.23146057 -0.03910828 C10.23128456 -0.04485766 12.23112947 -0.04534738 14.23095703 -0.04101562 C17.29504005 -0.03785803 20.35815577 -0.06129905 23.42211914 -0.08666992 C25.36287313 -0.08894304 27.30362972 -0.08964635 29.24438477 -0.08862305 C30.62260658 -0.10243767 30.62260658 -0.10243767 32.02867126 -0.11653137 C32.88288162 -0.11030258 33.73709198 -0.10407379 34.6171875 -0.09765625 C35.36838364 -0.09828568 36.11957977 -0.0989151 36.89353943 -0.0995636 C39.44067209 0.3819072 40.31899306 1.23022188 41.87329102 3.2746582 C42.37329102 6.2746582 42.37329102 6.2746582 41.87329102 9.2746582 C37.55747408 12.91018083 33.35251929 12.6985086 27.99438477 12.63793945 C26.72075829 12.63868721 26.72075829 12.63868721 25.42140198 12.63945007 C23.63198498 12.63711605 21.8425643 12.62742721 20.05322266 12.61083984 C17.31651441 12.58720763 14.58077881 12.5902889 11.84399414 12.59692383 C10.10245188 12.59134783 8.36091372 12.58423845 6.61938477 12.57543945 C5.80263779 12.57635086 4.98589081 12.57726227 4.14439392 12.57820129 C0.26658241 12.52984329 -2.8449767 12.49022717 -6.12670898 10.2746582 C-6.32202148 4.2199707 -6.32202148 4.2199707 -6.12670898 2.2746582 C-3.74403542 -0.10801536 -3.24157469 0.01990297 0 0 Z " fill="#EABD55" transform="translate(375.126708984375,60.725341796875)"/>
<path d="M0 0 C3.23475448 1.61737724 4.70572021 2.47629223 7 5 C7.66 3.68 8.32 2.36 9 1 C9.45890625 1.66386719 9.9178125 2.32773438 10.390625 3.01171875 C14.25886022 8.59102622 14.25886022 8.59102622 18.4375 13.9375 C20 16 20 16 20 19 C3.07603005 20.52163566 3.07603005 20.52163566 -1.75 16.984375 C-3.55959376 14.37918399 -4.84913646 11.95183319 -6 9 C-6.474375 7.80375 -6.94875 6.6075 -7.4375 5.375 C-7.7159375 4.199375 -7.7159375 4.199375 -8 3 C-6.0625 3.6875 -6.0625 3.6875 -4 5 C-3.375 7.5625 -3.375 7.5625 -3 10 C-2.34 10.33 -1.68 10.66 -1 11 C-0.67 7.37 -0.34 3.74 0 0 Z " fill="#F8C347" transform="translate(462,73)"/>
<path d="M0 0 C0 10.23 0 20.46 0 31 C1.32 31 2.64 31 4 31 C4 24.73 4 18.46 4 12 C10 12 10 12 11.75 13.3125 C12.88171799 14.84031928 13.94533748 16.41800622 15 18 C14.625 20.1875 14.625 20.1875 14 22 C13.12109375 20.20963542 12.2421875 18.41927083 11.36328125 16.62890625 C9.80171021 14.41772076 9.80171021 14.41772076 5 14 C5 19.94 5 25.88 5 32 C-4 32 -4 32 -7 31 C-7.24199091 27.06840862 -7.45693037 23.13635841 -7.64697266 19.2019043 C-7.74904942 17.20608591 -7.87247369 15.21139678 -7.99609375 13.21679688 C-8.05410156 11.96318359 -8.11210938 10.70957031 -8.171875 9.41796875 C-8.2347168 8.26063232 -8.29755859 7.1032959 -8.36230469 5.91088867 C-8 3 -8 3 -6.23925781 1.09887695 C-4 0 -4 0 0 0 Z " fill="#A2742D" transform="translate(52,54)"/>
<path d="M0 0 C0 4.29 0 8.58 0 13 C4.455 12.505 4.455 12.505 9 12 C8.34 12.66 7.68 13.32 7 14 C6.01 14 5.02 14 4 14 C4.01160156 14.64582031 4.02320312 15.29164062 4.03515625 15.95703125 C4.12809882 25.66289057 3.5673084 35.31523514 3 45 C1.68 45 0.36 45 -1 45 C-1 34.77 -1 24.54 -1 14 C-7.49223741 16.6370653 -7.49223741 16.6370653 -12 21 C-11.3638676 15.64771359 -7.52908597 0 0 0 Z " fill="#E0AA36" transform="translate(53,40)"/>
<path d="M0 0 C5.94 0 11.88 0 18 0 C17.67 4.95 17.34 9.9 17 15 C11.39 14.67 5.78 14.34 0 14 C0 9.38 0 4.76 0 0 Z " fill="#FBDD8D" transform="translate(54,23)"/>
<path d="M0 0 C1.97119141 -0.34057617 1.97119141 -0.34057617 4.3515625 -0.29296875 C5.20234375 -0.28330078 6.053125 -0.27363281 6.9296875 -0.26367188 C7.81914062 -0.23853516 8.70859375 -0.21339844 9.625 -0.1875 C10.97078125 -0.16719727 10.97078125 -0.16719727 12.34375 -0.14648438 C14.56309789 -0.11106925 16.78125188 -0.06168461 19 0 C17.61465681 2.90423804 16.04325792 5.552353 14.25 8.22265625 C13.7240625 9.00833984 13.198125 9.79402344 12.65625 10.60351562 C12.1096875 11.41498047 11.563125 12.22644531 11 13.0625 C10.18015625 14.28549805 10.18015625 14.28549805 9.34375 15.53320312 C8.32917653 17.04635988 7.31365523 18.55888186 6.296875 20.07055664 C3.15314575 24.74768245 2.94374152 26.40183004 4 32 C1.9375 30.25 1.9375 30.25 0 28 C0.15391773 25.61427515 0.96310147 24.07214488 2.046875 21.953125 C3.37751147 17.83033332 3.2132489 13.98793681 3.125 9.6875 C3.11597656 8.85154297 3.10695313 8.01558594 3.09765625 7.15429688 C3.07420989 5.10274031 3.03834266 3.05133223 3 1 C2.34 1 1.68 1 1 1 C0.9175 1.78375 0.835 2.5675 0.75 3.375 C0 6 0 6 -2.0625 7.3125 C-2.701875 7.539375 -3.34125 7.76625 -4 8 C-2.87548273 5.0280615 -1.77706209 2.66559313 0 0 Z " fill="#C79E3B" transform="translate(462,36)"/>
<path d="M0 0 C3.49734228 0.38859359 6.65788261 0.88596087 10 2 C9.46148032 7.27749285 8.22656164 11.25645564 6 16 C7.32 16.33 8.64 16.66 10 17 C10 17.66 10 18.32 10 19 C9.34 19.33 8.68 19.66 8 20 C8.33 21.98 8.66 23.96 9 26 C8.34 26.33 7.68 26.66 7 27 C6.01 25.02 5.02 23.04 4 21 C3.67 23.64 3.34 26.28 3 29 C2.67 28.34 2.34 27.68 2 27 C1.01 26.67 0.02 26.34 -1 26 C-0.67 25.34 -0.34 24.68 0 24 C0.14375422 20.62177584 0.07536348 18.22609045 -1 15 C-1.66 14.67 -2.32 14.34 -3 14 C-2.34 14 -1.68 14 -1 14 C-1.01160156 13.07316406 -1.02320312 12.14632812 -1.03515625 11.19140625 C-1.04417969 9.99386719 -1.05320312 8.79632813 -1.0625 7.5625 C-1.07410156 6.36753906 -1.08570312 5.17257813 -1.09765625 3.94140625 C-1 1 -1 1 0 0 Z " fill="#F3C32B" transform="translate(72,24)"/>
<path d="M0 0 C1.41112312 0.00022659 1.41112312 0.00022659 2.85075378 0.00045776 C3.86333755 0.01078033 4.87592133 0.02110291 5.91918945 0.03173828 C7.47764336 0.03598312 7.47764336 0.03598312 9.06758118 0.04031372 C12.38932767 0.05151797 15.71080556 0.07662314 19.0324707 0.10205078 C21.28311785 0.11208026 23.53376923 0.12120616 25.78442383 0.12939453 C31.30469793 0.15145808 36.82481513 0.18493807 42.3449707 0.22705078 C42.8399707 2.20705078 42.8399707 2.20705078 43.3449707 4.22705078 C42.75250549 4.23735825 42.16004028 4.24766571 41.54962158 4.25828552 C35.38526564 4.36643536 29.22105336 4.48102657 23.05688477 4.59936523 C20.75613408 4.64268684 18.45535182 4.68436391 16.15454102 4.72436523 C12.84812909 4.78213473 9.5418757 4.84581028 6.2355957 4.91064453 C5.20629944 4.92735703 4.17700317 4.94406952 3.11651611 4.96128845 C2.15582214 4.98123367 1.19512817 5.00117889 0.20532227 5.02172852 C-0.63851013 5.0372728 -1.48234253 5.05281708 -2.35174561 5.0688324 C-4.56878574 5.22112649 -6.52353309 5.61487166 -8.6550293 6.22705078 C-8.3425293 4.35205078 -8.3425293 4.35205078 -7.6550293 2.22705078 C-4.45457454 0.09341428 -3.66873493 -0.0196715 0 0 Z " fill="#FBE1A2" transform="translate(435.655029296875,97.77294921875)"/>
<path d="M0 0 C1.41112312 0.00022659 1.41112312 0.00022659 2.85075378 0.00045776 C3.86333755 0.01078033 4.87592133 0.02110291 5.91918945 0.03173828 C7.47764336 0.03598312 7.47764336 0.03598312 9.06758118 0.04031372 C12.38932767 0.05151797 15.71080556 0.07662314 19.0324707 0.10205078 C21.28311785 0.11208026 23.53376923 0.12120616 25.78442383 0.12939453 C31.30469793 0.15145808 36.82481513 0.18493807 42.3449707 0.22705078 C42.8399707 2.20705078 42.8399707 2.20705078 43.3449707 4.22705078 C42.75250549 4.23735825 42.16004028 4.24766571 41.54962158 4.25828552 C35.38526564 4.36643536 29.22105336 4.48102657 23.05688477 4.59936523 C20.75613408 4.64268684 18.45535182 4.68436391 16.15454102 4.72436523 C12.84812909 4.78213473 9.5418757 4.84581028 6.2355957 4.91064453 C5.20629944 4.92735703 4.17700317 4.94406952 3.11651611 4.96128845 C2.15582214 4.98123367 1.19512817 5.00117889 0.20532227 5.02172852 C-0.63851013 5.0372728 -1.48234253 5.05281708 -2.35174561 5.0688324 C-4.56878574 5.22112649 -6.52353309 5.61487166 -8.6550293 6.22705078 C-8.3425293 4.35205078 -8.3425293 4.35205078 -7.6550293 2.22705078 C-4.45457454 0.09341428 -3.66873493 -0.0196715 0 0 Z " fill="#FBE1A2" transform="translate(304.655029296875,97.77294921875)"/>
<path d="M0 0 C1.41112312 0.00022659 1.41112312 0.00022659 2.85075378 0.00045776 C3.86333755 0.01078033 4.87592133 0.02110291 5.91918945 0.03173828 C7.47764336 0.03598312 7.47764336 0.03598312 9.06758118 0.04031372 C12.38932767 0.05151797 15.71080556 0.07662314 19.0324707 0.10205078 C21.28311785 0.11208026 23.53376923 0.12120616 25.78442383 0.12939453 C31.30469793 0.15145808 36.82481513 0.18493807 42.3449707 0.22705078 C42.8399707 2.20705078 42.8399707 2.20705078 43.3449707 4.22705078 C42.75250549 4.23735825 42.16004028 4.24766571 41.54962158 4.25828552 C35.38526564 4.36643536 29.22105336 4.48102657 23.05688477 4.59936523 C20.75613408 4.64268684 18.45535182 4.68436391 16.15454102 4.72436523 C12.84812909 4.78213473 9.5418757 4.84581028 6.2355957 4.91064453 C5.20629944 4.92735703 4.17700317 4.94406952 3.11651611 4.96128845 C2.15582214 4.98123367 1.19512817 5.00117889 0.20532227 5.02172852 C-0.63851013 5.0372728 -1.48234253 5.05281708 -2.35174561 5.0688324 C-4.56878574 5.22112649 -6.52353309 5.61487166 -8.6550293 6.22705078 C-8.3425293 4.35205078 -8.3425293 4.35205078 -7.6550293 2.22705078 C-4.45457454 0.09341428 -3.66873493 -0.0196715 0 0 Z " fill="#FBE1A2" transform="translate(171.655029296875,97.77294921875)"/>
<path d="M0 0 C6.6 0 13.2 0 20 0 C19.67 0.66 19.34 1.32 19 2 C18.67 2 18.34 2 18 2 C17.34 7.61 16.68 13.22 16 19 C15.01 19.33 14.02 19.66 13 20 C11.39438174 17.60512849 9.79046593 15.20914587 8.1875 12.8125 C7.73568359 12.13896484 7.28386719 11.46542969 6.81835938 10.77148438 C6.37685547 10.11083984 5.93535156 9.45019531 5.48046875 8.76953125 C5.07723389 8.16729736 4.67399902 7.56506348 4.25854492 6.94458008 C2.78314281 4.66493355 1.39708096 2.32846827 0 0 Z " fill="#D39D35" transform="translate(425,36)"/>
<path d="M0 0 C-0.25 2.375 -0.25 2.375 -1 5 C-4.7248378 7.85183844 -9.34664951 7.30573103 -13.81640625 7.30078125 C-14.66927719 7.30506638 -15.52214813 7.3093515 -16.40086365 7.31376648 C-18.20042026 7.31950021 -20.00000004 7.3200171 -21.79956055 7.31567383 C-24.5562264 7.31250721 -27.31182563 7.33600725 -30.06835938 7.36132812 C-31.81770698 7.36360051 -33.56705747 7.3643049 -35.31640625 7.36328125 C-36.14145157 7.372491 -36.96649689 7.38170074 -37.81654358 7.39118958 C-43.60657327 7.34421003 -43.60657327 7.34421003 -45.74107361 5.47673035 C-46.15651932 4.98940933 -46.57196503 4.50208832 -47 4 C-44.86164878 1.86164878 -40.00814883 2.78903504 -37.0390625 2.75390625 C-35.18749529 2.72096702 -33.3359329 2.68775539 -31.484375 2.65429688 C-28.55244287 2.60685699 -25.62053024 2.56244017 -22.68847656 2.52319336 C-19.86762708 2.48352665 -17.04718734 2.4319657 -14.2265625 2.37890625 C-12.90925644 2.36628502 -12.90925644 2.36628502 -11.56533813 2.35340881 C-10.74794159 2.33676682 -9.93054504 2.32012482 -9.08837891 2.30297852 C-8.01035507 2.28751732 -8.01035507 2.28751732 -6.91055298 2.27174377 C-4.14728421 1.87871563 -2.8370276 0 0 0 Z " fill="#4F3E18" transform="translate(417,66)"/>
<path d="M0 0 C-0.28651447 3.15165921 -0.67160625 5.47101338 -2.35253906 8.17871094 C-6.63192013 11.12265992 -11.04336559 10.49012221 -16.109375 10.390625 C-17.19132141 10.38496521 -18.27326782 10.37930542 -19.38800049 10.37347412 C-22.84245107 10.35108999 -26.29586311 10.30088791 -29.75 10.25 C-32.09243293 10.22993772 -34.43488213 10.21168648 -36.77734375 10.1953125 C-42.5185833 10.15121855 -48.25921745 10.08428555 -54 10 C-54.33 9.01 -54.66 8.02 -55 7 C-54.40531418 6.99857498 -53.81062836 6.99714996 -53.19792175 6.99568176 C-47.01713738 6.97601947 -40.83734523 6.92182126 -34.65698242 6.84741211 C-32.34943761 6.82419215 -30.04178622 6.80982707 -27.73413086 6.80444336 C-24.41973133 6.79518327 -21.10701754 6.75425551 -17.79296875 6.70703125 C-16.7585112 6.7109639 -15.72405365 6.71489655 -14.6582489 6.71894836 C-12.00839831 6.66477172 -9.58486159 6.58649431 -7 6 C-4.85418415 3.67429001 -4.85418415 3.67429001 -4 1 C-2 0 -2 0 0 0 Z " fill="#4B3B17" transform="translate(484,104)"/>
<path d="M0 0 C-0.28651447 3.15165921 -0.67160625 5.47101338 -2.35253906 8.17871094 C-6.63192013 11.12265992 -11.04336559 10.49012221 -16.109375 10.390625 C-17.19132141 10.38496521 -18.27326782 10.37930542 -19.38800049 10.37347412 C-22.84245107 10.35108999 -26.29586311 10.30088791 -29.75 10.25 C-32.09243293 10.22993772 -34.43488213 10.21168648 -36.77734375 10.1953125 C-42.5185833 10.15121855 -48.25921745 10.08428555 -54 10 C-54.33 9.01 -54.66 8.02 -55 7 C-54.40531418 6.99857498 -53.81062836 6.99714996 -53.19792175 6.99568176 C-47.01713738 6.97601947 -40.83734523 6.92182126 -34.65698242 6.84741211 C-32.34943761 6.82419215 -30.04178622 6.80982707 -27.73413086 6.80444336 C-24.41973133 6.79518327 -21.10701754 6.75425551 -17.79296875 6.70703125 C-16.7585112 6.7109639 -15.72405365 6.71489655 -14.6582489 6.71894836 C-12.00839831 6.66477172 -9.58486159 6.58649431 -7 6 C-4.85418415 3.67429001 -4.85418415 3.67429001 -4 1 C-2 0 -2 0 0 0 Z " fill="#4D4D4D" transform="translate(419,104)"/>
<path d="M0 0 C-0.28651447 3.15165921 -0.67160625 5.47101338 -2.35253906 8.17871094 C-6.63192013 11.12265992 -11.04336559 10.49012221 -16.109375 10.390625 C-17.19132141 10.38496521 -18.27326782 10.37930542 -19.38800049 10.37347412 C-22.84245107 10.35108999 -26.29586311 10.30088791 -29.75 10.25 C-32.09243293 10.22993772 -34.43488213 10.21168648 -36.77734375 10.1953125 C-42.5185833 10.15121855 -48.25921745 10.08428555 -54 10 C-54.33 9.01 -54.66 8.02 -55 7 C-54.40531418 6.99857498 -53.81062836 6.99714996 -53.19792175 6.99568176 C-47.01713738 6.97601947 -40.83734523 6.92182126 -34.65698242 6.84741211 C-32.34943761 6.82419215 -30.04178622 6.80982707 -27.73413086 6.80444336 C-24.41973133 6.79518327 -21.10701754 6.75425551 -17.79296875 6.70703125 C-16.7585112 6.7109639 -15.72405365 6.71489655 -14.6582489 6.71894836 C-12.00839831 6.66477172 -9.58486159 6.58649431 -7 6 C-4.85418415 3.67429001 -4.85418415 3.67429001 -4 1 C-2 0 -2 0 0 0 Z " fill="#4B3B17" transform="translate(353,104)"/>
<path d="M0 0 C-0.28651447 3.15165921 -0.67160625 5.47101338 -2.35253906 8.17871094 C-6.63192013 11.12265992 -11.04336559 10.49012221 -16.109375 10.390625 C-17.19132141 10.38496521 -18.27326782 10.37930542 -19.38800049 10.37347412 C-22.84245107 10.35108999 -26.29586311 10.30088791 -29.75 10.25 C-32.09243293 10.22993772 -34.43488213 10.21168648 -36.77734375 10.1953125 C-42.5185833 10.15121855 -48.25921745 10.08428555 -54 10 C-54.33 9.01 -54.66 8.02 -55 7 C-54.40531418 6.99857498 -53.81062836 6.99714996 -53.19792175 6.99568176 C-47.01713738 6.97601947 -40.83734523 6.92182126 -34.65698242 6.84741211 C-32.34943761 6.82419215 -30.04178622 6.80982707 -27.73413086 6.80444336 C-24.41973133 6.79518327 -21.10701754 6.75425551 -17.79296875 6.70703125 C-16.7585112 6.7109639 -15.72405365 6.71489655 -14.6582489 6.71894836 C-12.00839831 6.66477172 -9.58486159 6.58649431 -7 6 C-4.85418415 3.67429001 -4.85418415 3.67429001 -4 1 C-2 0 -2 0 0 0 Z " fill="#4D4D4D" transform="translate(286,104)"/>
<path d="M0 0 C-0.28651447 3.15165921 -0.67160625 5.47101338 -2.35253906 8.17871094 C-6.63192013 11.12265992 -11.04336559 10.49012221 -16.109375 10.390625 C-17.19132141 10.38496521 -18.27326782 10.37930542 -19.38800049 10.37347412 C-22.84245107 10.35108999 -26.29586311 10.30088791 -29.75 10.25 C-32.09243293 10.22993772 -34.43488213 10.21168648 -36.77734375 10.1953125 C-42.5185833 10.15121855 -48.25921745 10.08428555 -54 10 C-54.33 9.01 -54.66 8.02 -55 7 C-54.40531418 6.99857498 -53.81062836 6.99714996 -53.19792175 6.99568176 C-47.01713738 6.97601947 -40.83734523 6.92182126 -34.65698242 6.84741211 C-32.34943761 6.82419215 -30.04178622 6.80982707 -27.73413086 6.80444336 C-24.41973133 6.79518327 -21.10701754 6.75425551 -17.79296875 6.70703125 C-16.7585112 6.7109639 -15.72405365 6.71489655 -14.6582489 6.71894836 C-12.00839831 6.66477172 -9.58486159 6.58649431 -7 6 C-4.85418415 3.67429001 -4.85418415 3.67429001 -4 1 C-2 0 -2 0 0 0 Z " fill="#4B3B17" transform="translate(220,104)"/>
<path d="M0 0 C0.66 0.33 1.32 0.66 2 1 C0.02 1.99 0.02 1.99 -2 3 C-0.56825986 5.75303561 0.87139922 8.50185432 2.3125 11.25 C2.71662109 12.02730469 3.12074219 12.80460937 3.53710938 13.60546875 C5.48298575 17.30737991 7.45452083 20.67193015 10 24 C10 24.66 10 25.32 10 26 C3.4 26 -3.2 26 -10 26 C-11.65 23.03 -13.3 20.06 -15 17 C-12.5625 17.625 -12.5625 17.625 -10 19 C-9.1875 22.125 -9.1875 22.125 -9 25 C-7.68 25 -6.36 25 -5 25 C-5.04125 23.906875 -5.0825 22.81375 -5.125 21.6875 C-5 18 -5 18 -3 15 C-2.01 15 -1.02 15 0 15 C-0.43878726 11.9284892 -0.96056059 10.05988948 -2.6875 7.4375 C-3.120625 6.633125 -3.55375 5.82875 -4 5 C-3.3125 2.75 -3.3125 2.75 -2 1 C-1.34 0.67 -0.68 0.34 0 0 Z " fill="#DFAA3E" transform="translate(82,60)"/>
<path d="M0 0 C3.79235994 1.48985569 5.80565887 3.58658047 8 7 C7.57754202 10.21872749 6.18080435 12.80569394 4.625 15.625 C4.20476562 16.40101562 3.78453125 17.17703125 3.3515625 17.9765625 C2 20 2 20 -1 22 C-4.1875 22.125 -4.1875 22.125 -7 22 C-7 19.03 -7 16.06 -7 13 C-5.35 13 -3.7 13 -2 13 C-1.93941406 12.22914062 -1.87882812 11.45828125 -1.81640625 10.6640625 C-1.73261719 9.66117188 -1.64882813 8.65828125 -1.5625 7.625 C-1.48128906 6.62726563 -1.40007812 5.62953125 -1.31640625 4.6015625 C-1 2 -1 2 0 0 Z " fill="#D9A93A" transform="translate(444,68)"/>
<path d="M0 0 C0.3690205 15.74487472 0.3690205 15.74487472 -2 23 C-5.03869411 21.48065294 -5.64410306 19.01995228 -7 16 C-7 15.34 -7 14.68 -7 14 C-7.66 14 -8.32 14 -9 14 C-9 9.71 -9 5.42 -9 1 C-6.04335481 -0.4783226 -3.25770263 -0.06032783 0 0 Z " fill="#FADD92" transform="translate(71,53)"/>
<path d="M0 0 C0.66 0 1.32 0 2 0 C2.31435058 3.22646569 2.56866446 6.45500133 2.8125 9.6875 C2.90208984 10.59951172 2.99167969 11.51152344 3.08398438 12.45117188 C3.54545249 19.13031568 3.54545249 19.13031568 1.89599609 21.76025391 C0.51171875 23.14453125 0.51171875 23.14453125 -2 25 C-6.12989477 20.73688282 -6.61271765 17.71241466 -7 12 C-7.99 12.495 -7.99 12.495 -9 13 C-7.73882275 9.11137013 -6.54735833 7.10624401 -3 5 C-2.34 5 -1.68 5 -1 5 C-0.67 3.35 -0.34 1.7 0 0 Z " fill="#EEC35F" transform="translate(463,37)"/>
<path d="M0 0 C3.80666984 1.44390925 5.26602582 3.34952803 7 7 C6.67 7.66 6.34 8.32 6 9 C5.67 8.67 5.34 8.34 5 8 C4.63890458 9.64432706 4.28629924 11.2905208 3.9375 12.9375 C3.74027344 13.85402344 3.54304688 14.77054688 3.33984375 15.71484375 C3.22769531 16.46894531 3.11554688 17.22304688 3 18 C3.33 18.33 3.66 18.66 4 19 C4.23192865 20.51469448 4.41215238 22.03754562 4.5625 23.5625 C4.64628906 24.38878906 4.73007812 25.21507813 4.81640625 26.06640625 C4.90728516 27.02353516 4.90728516 27.02353516 5 28 C4.01 28 3.02 28 2 28 C-3.27644219 20.79358399 -3.230375 15.07893675 -2.05322266 6.62719727 C-1.1930332 1.1930332 -1.1930332 1.1930332 0 0 Z " fill="#F6C249" transform="translate(443,37)"/>
<path d="M0 0 C1.72974441 0.00015918 3.45949355 0.0058569 5.18920898 0.01586914 C6.09783188 0.01728409 7.00645477 0.01869904 7.94261169 0.02015686 C10.85687494 0.02577346 13.77106254 0.03832874 16.68530273 0.05102539 C18.65600475 0.05603825 20.62670797 0.06060153 22.59741211 0.06469727 C27.43923832 0.07574828 32.28100768 0.09302401 37.12280273 0.11352539 C37.12280273 1.10352539 37.12280273 2.09352539 37.12280273 3.11352539 C24.25280273 3.11352539 11.38280273 3.11352539 -1.87719727 3.11352539 C-2.20719727 4.10352539 -2.53719727 5.09352539 -2.87719727 6.11352539 C-3.86719727 6.11352539 -4.85719727 6.11352539 -5.87719727 6.11352539 C-4.80515099 0.14069613 -4.80515099 0.14069613 0 0 Z " fill="#FCE2A7" transform="translate(374.877197265625,60.886474609375)"/>
<path d="M0 0 C0.99 0 1.98 0 3 0 C3 0.66 3 1.32 3 2 C5.31 2.33 7.62 2.66 10 3 C10 7.33179615 9.64179175 7.90913949 7.1875 11.1875 C4.10047584 15.58085353 2.39078181 19.8394675 1 25 C0.67 25 0.34 25 0 25 C0 16.75 0 8.5 0 0 Z " fill="#C49B5E" transform="translate(40,24)"/>
<path d="M0 0 C1.43088528 2.86177057 0.59991697 4.93375773 0 8 C0.763125 7.505 1.52625 7.01 2.3125 6.5 C5 5 5 5 8 5 C8.33 9.95 8.66 14.9 9 20 C7.68 20 6.36 20 5 20 C4.67 16.04 4.34 12.08 4 8 C-0.10416797 11.07812598 -3.16253019 13.74379529 -6 18 C-6.66 18 -7.32 18 -8 18 C-6.95109901 11.2369369 -4.96918432 4.96918432 0 0 Z " fill="#946125" transform="translate(48,33)"/>
<path d="M0 0 C1.32 0 2.64 0 4 0 C5.76424607 3.08923087 6.36917568 5.65462185 6.6875 9.1875 C6.77386719 10.06792969 6.86023438 10.94835938 6.94921875 11.85546875 C6.97435547 12.91701172 6.97435547 12.91701172 7 14 C6 15 6 15 3.93359375 15.09765625 C3.10988281 15.08605469 2.28617187 15.07445312 1.4375 15.0625 C0.61121094 15.05347656 -0.21507813 15.04445313 -1.06640625 15.03515625 C-1.70449219 15.02355469 -2.34257813 15.01195312 -3 15 C-2.22095672 4.44191344 -2.22095672 4.44191344 0 0 Z " fill="#C1983E" transform="translate(86,24)"/>
<path d="M0 0 C2.4375 0.6875 2.4375 0.6875 5 2 C5.8125 4.625 5.8125 4.625 6 7 C5.01 7.495 5.01 7.495 4 8 C3.34 7.67 2.68 7.34 2 7 C1.34 10.3 0.68 13.6 0 17 C-1.32 17 -2.64 17 -4 17 C-5.85493664 13.29012673 -5.59596347 9.03860349 -5 5 C-3.55214852 2.70672475 -2.20749707 1.65562281 0 0 Z " fill="#F8C751" transform="translate(77,68)"/>
<path d="M0 0 C0.33 2.31 0.66 4.62 1 7 C0.34 7 -0.32 7 -1 7 C-1 7.66 -1 8.32 -1 9 C-1.66 9 -2.32 9 -3 9 C-3 6.69 -3 4.38 -3 2 C-7.455 2.495 -7.455 2.495 -12 3 C-12 6.96 -12 10.92 -12 15 C-13.65 15 -15.3 15 -17 15 C-17 11.04 -17 7.08 -17 3 C-11.24629725 0.6985189 -6.17535802 -0.18713206 0 0 Z " fill="#EFC967" transform="translate(74,51)"/>
<path d="M0 0 C16.83 0 33.66 0 51 0 C50.67 0.66 50.34 1.32 50 2 C33.83 2.33 17.66 2.66 1 3 C0.67 2.01 0.34 1.02 0 0 Z " fill="#BB9339" transform="translate(427,109)"/>
<path d="M0 0 C16.83 0 33.66 0 51 0 C50.67 0.66 50.34 1.32 50 2 C33.83 2.33 17.66 2.66 1 3 C0.67 2.01 0.34 1.02 0 0 Z " fill="#BFBFBF" transform="translate(362,109)"/>
<path d="M0 0 C16.83 0 33.66 0 51 0 C50.67 0.66 50.34 1.32 50 2 C33.83 2.33 17.66 2.66 1 3 C0.67 2.01 0.34 1.02 0 0 Z " fill="#BB9339" transform="translate(296,109)"/>
<path d="M0 0 C16.83 0 33.66 0 51 0 C50.67 0.66 50.34 1.32 50 2 C33.83 2.33 17.66 2.66 1 3 C0.67 2.01 0.34 1.02 0 0 Z " fill="#BFBFBF" transform="translate(229,109)"/>
<path d="M0 0 C16.83 0 33.66 0 51 0 C50.67 0.66 50.34 1.32 50 2 C33.83 2.33 17.66 2.66 1 3 C0.67 2.01 0.34 1.02 0 0 Z " fill="#BB9339" transform="translate(163,109)"/>
<path d="M0 0 C3.63 0 7.26 0 11 0 C9.07775454 3.84449092 6.83715144 7.24912842 4.375 10.75 C3.95476562 11.35199219 3.53453125 11.95398438 3.1015625 12.57421875 C2.07006863 14.05113043 1.03535421 15.52579194 0 17 C-0.66 15.68 -1.32 14.36 -2 13 C-1.34 13 -0.68 13 0 13 C0 8.71 0 4.42 0 0 Z " fill="#B5812B" transform="translate(470,36)"/>
<path d="M0 0 C2.31 0 4.62 0 7 0 C7.33 4.62 7.66 9.24 8 14 C5.36 14 2.72 14 0 14 C0 9.38 0 4.76 0 0 Z " fill="#F9C955" transform="translate(54,23)"/>
<path d="M0 0 C3.57104439 1.87949705 5.54744301 3.17053157 7 7 C6.34 7 5.68 7 5 7 C4.04380267 10.99795892 3.8960408 14.70803922 3.9375 18.8125 C3.95103516 20.55466797 3.95103516 20.55466797 3.96484375 22.33203125 C3.97644531 23.21246094 3.98804688 24.09289062 4 25 C3.01 25 2.02 25 1 25 C0.33645486 21.96665081 -0.14182526 18.95643978 -0.5 15.875 C-0.86152325 12.09505786 -0.86152325 12.09505786 -2 9 C-1.66015625 6.73828125 -1.66015625 6.73828125 -1.0625 4.3125 C-0.86785156 3.50425781 -0.67320312 2.69601563 -0.47265625 1.86328125 C-0.31667969 1.24839844 -0.16070312 0.63351563 0 0 Z " fill="#EBCB7B" transform="translate(447,44)"/>
<path d="M0 0 C0.33 0 0.66 0 1 0 C1 3.96 1 7.92 1 12 C-0.0725 12.5775 -1.145 13.155 -2.25 13.75 C-5.3026529 15.48375824 -7.64597393 17.3634908 -10 20 C-8.97624086 11.38630239 -6.09234896 6.09234896 0 0 Z " fill="#F8D273" transform="translate(51,41)"/>
<path d="M0 0 C1.32 0.33 2.64 0.66 4 1 C3.34 1 2.68 1 2 1 C2 3.64 2 6.28 2 9 C5.3 9 8.6 9 12 9 C11.67 9.99 11.34 10.98 11 12 C4.73 12 -1.54 12 -8 12 C-6.43108518 8.86217036 -4.97689907 6.49160748 -2.875 3.75 C-2.06675781 2.69039063 -2.06675781 2.69039063 -1.2421875 1.609375 C-0.83226562 1.07828125 -0.42234375 0.5471875 0 0 Z " fill="#8F6123" transform="translate(432,80)"/>
<path d="M0 0 C3.63 0 7.26 0 11 0 C11.06058594 0.96421875 11.12117188 1.9284375 11.18359375 2.921875 C11.26738281 4.18515625 11.35117187 5.4484375 11.4375 6.75 C11.55931641 8.62945312 11.55931641 8.62945312 11.68359375 10.546875 C11.92515522 13.18317553 12.24283934 15.48037294 13 18 C10.06412149 15.20638873 7.68002981 12.33061576 5.375 9 C4.78460938 8.154375 4.19421875 7.30875 3.5859375 6.4375 C2 4 2 4 0 0 Z " fill="#A26F27" transform="translate(425,36)"/>
<path d="M0 0 C1.32 0 2.64 0 4 0 C4 10.23 4 20.46 4 31 C3.01 31 2.02 31 1 31 C1.00523682 30.13197754 1.01047363 29.26395508 1.01586914 28.36962891 C1.03289862 25.15299727 1.04544408 21.93638859 1.05493164 18.71972656 C1.0599643 17.32681523 1.06679098 15.9339092 1.07543945 14.54101562 C1.08755152 12.54038754 1.09270412 10.53972112 1.09765625 8.5390625 C1.10289307 7.33459473 1.10812988 6.13012695 1.11352539 4.88916016 C1.20087891 2.0586323 1.20087891 2.0586323 0 0 Z " fill="#BC852D" transform="translate(48,54)"/>
<path d="M0 0 C0.99 0 1.98 0 3 0 C2.67 4.95 2.34 9.9 2 15 C2.66 15 3.32 15 4 15 C3.67 19.62 3.34 24.24 3 29 C2.67 28.34 2.34 27.68 2 27 C1.01 26.67 0.02 26.34 -1 26 C-0.67 25.34 -0.34 24.68 0 24 C0.14375422 20.62177584 0.07536348 18.22609045 -1 15 C-1.66 14.67 -2.32 14.34 -3 14 C-2.34 14 -1.68 14 -1 14 C-1.01160156 13.07316406 -1.02320312 12.14632812 -1.03515625 11.19140625 C-1.04417969 9.99386719 -1.05320312 8.79632813 -1.0625 7.5625 C-1.07410156 6.36753906 -1.08570312 5.17257813 -1.09765625 3.94140625 C-1 1 -1 1 0 0 Z " fill="#F7CA45" transform="translate(72,24)"/>
<path d="M0 0 C0.598125 0.33 1.19625 0.66 1.8125 1 C4.05386471 2.20787988 4.05386471 2.20787988 7 2 C11 6.22857143 11 6.22857143 11 10 C4.73 10 -1.54 10 -8 10 C-8 9.67 -8 9.34 -8 9 C-5.36 8.67 -2.72 8.34 0 8 C-0.33 7.67 -0.66 7.34 -1 7 C-1.125 4 -1.125 4 -1 1 C-0.67 0.67 -0.34 0.34 0 0 Z " fill="#BB852F" transform="translate(471,82)"/>
<path d="M0 0 C0.33 0 0.66 0 1 0 C1 4.29 1 8.58 1 13 C1.66 13.33 2.32 13.66 3 14 C2.67 24.23 2.34 34.46 2 45 C1.34 45 0.68 45 0 45 C-0.17025626 40.68105045 -0.33046988 36.36186782 -0.48217773 32.04223633 C-0.53489097 30.57892325 -0.59014521 29.11569905 -0.64819336 27.65258789 C-1.01528073 18.34772107 -0.96502556 9.28497482 0 0 Z " fill="#D29A32" transform="translate(52,40)"/>
<path d="M0 0 C3.80666984 1.44390925 5.26602582 3.34952803 7 7 C6.67 7.66 6.34 8.32 6 9 C5.67 8.67 5.34 8.34 5 8 C4.01 9.485 4.01 9.485 3 11 C2.67 8.36 2.34 5.72 2 3 C-0.55654361 9.71092698 -0.12185111 14.98843054 1 22 C0.34 22.33 -0.32 22.66 -1 23 C-3.55621464 18.24867167 -2.90977823 14.37947296 -2.1875 9.25 C-2.09146484 8.47011719 -1.99542969 7.69023438 -1.89648438 6.88671875 C-1.15368226 1.15368226 -1.15368226 1.15368226 0 0 Z " fill="#D7AB44" transform="translate(443,37)"/>
<path d="M0 0 C4 4.5 4 4.5 4 9 C2.35 9 0.7 9 -1 9 C-0.97679688 9.59167969 -0.95359375 10.18335938 -0.9296875 10.79296875 C-0.82588536 15.33801959 -0.86291643 18.85940059 -3 23 C-3.33 23 -3.66 23 -4 23 C-3.67 18.71 -3.34 14.42 -3 10 C-4.65 10 -6.3 10 -8 10 C-8 9.34 -8 8.68 -8 8 C-5.36 7.67 -2.72 7.34 0 7 C0 4.69 0 2.38 0 0 Z " fill="#8A6F0D" transform="translate(92,31)"/>
<path d="M0 0 C2.94751667 2.74423966 5.22773678 5.36219655 7 9 C6.67 9.99 6.34 10.98 6 12 C5.54625 11.505 5.0925 11.01 4.625 10.5 C3.12364481 8.77390663 3.12364481 8.77390663 1 9 C0.67 10.98 0.34 12.96 0 15 C0.99 15.33 1.98 15.66 3 16 C0.59454362 17.20272819 -0.94996953 17.10071472 -3.625 17.0625 C-4.85089844 17.04896484 -4.85089844 17.04896484 -6.1015625 17.03515625 C-6.72804688 17.02355469 -7.35453125 17.01195313 -8 17 C-8.33 16.01 -8.66 15.02 -9 14 C-8.34 14 -7.68 14 -7 14 C-7 14.66 -7 15.32 -7 16 C-5.02 16 -3.04 16 -1 16 C-1.01160156 15.34773438 -1.02320313 14.69546875 -1.03515625 14.0234375 C-1.08470994 9.2238086 -0.99413751 4.72215315 0 0 Z " fill="#B49045" transform="translate(470,74)"/>
<path d="M0 0 C3.29374888 1.53435507 5.15115494 2.78884806 7 6 C6 9 6 9 4 12 C3.67 9.69 3.34 7.38 3 5 C2.67 5 2.34 5 2 5 C1.67 9.29 1.34 13.58 1 18 C0.34 18 -0.32 18 -1 18 C-2.20287276 11.50448709 -1.58444052 6.39014027 0 0 Z " fill="#F6C44D" transform="translate(444,68)"/>
<path d="M0 0 C2.52259061 1.97420135 2.9929808 2.96745642 3.6875 6.1875 C3.790625 7.115625 3.89375 8.04375 4 9 C0.7 9 -2.6 9 -6 9 C-4.68775452 5.06326356 -3.08089673 2.77280706 0 0 Z " fill="#F2CB67" transform="translate(433,70)"/>
<path d="M0 0 C0.99 0.33 1.98 0.66 3 1 C2.67 1.99 2.34 2.98 2 4 C-14.5 4 -31 4 -48 4 C-48 3.67 -48 3.34 -48 3 C-32.16 3 -16.32 3 0 3 C0 2.01 0 1.02 0 0 Z " fill="#F9CC65" transform="translate(479,99)"/>
<path d="M0 0 C0.99 0.33 1.98 0.66 3 1 C2.67 1.99 2.34 2.98 2 4 C-14.5 4 -31 4 -48 4 C-48 3.67 -48 3.34 -48 3 C-32.16 3 -16.32 3 0 3 C0 2.01 0 1.02 0 0 Z " fill="#F9CC65" transform="translate(348,99)"/>
<path d="M0 0 C0.99 0.33 1.98 0.66 3 1 C2.67 1.99 2.34 2.98 2 4 C-14.5 4 -31 4 -48 4 C-48 3.67 -48 3.34 -48 3 C-32.16 3 -16.32 3 0 3 C0 2.01 0 1.02 0 0 Z " fill="#F9CC65" transform="translate(215,99)"/>
<path d="M0 0 C3.43149963 4.57533284 4.15122226 5.98578292 4.1875 11.5 C4.20167969 12.4796875 4.21585937 13.459375 4.23046875 14.46875 C4 17 4 17 2 19 C1.67 18.01 1.34 17.02 1 16 C0.34 15.67 -0.32 15.34 -1 15 C-0.67 10.05 -0.34 5.1 0 0 Z " fill="#FADD92" transform="translate(75,43)"/>
<path d="M0 0 C2.31242092 2.16323247 4.0156396 4.37647804 5.6875 7.0625 C6.34298828 8.10083984 6.34298828 8.10083984 7.01171875 9.16015625 C8 11 8 11 8 13 C4.7 13 1.4 13 -2 13 C-1.34 12.67 -0.68 12.34 0 12 C0.75243555 10.07361988 0.75243555 10.07361988 1 8 C0.67 7.34 0.34 6.68 0 6 C-0.039992 4.00039988 -0.04346799 1.99952758 0 0 Z " fill="#966F3B" transform="translate(84,73)"/>
<path d="M0 0 C3.875 1.75 3.875 1.75 5 4 C4.91161539 6.37783105 4.75653579 8.75345146 4.5625 11.125 C4.46066406 12.40632813 4.35882813 13.68765625 4.25390625 15.0078125 C4.17011719 15.99523437 4.08632813 16.98265625 4 18 C0.38090223 13.59414185 -0.13641866 10.36781802 -0.0625 4.75 C-0.05347656 3.85796875 -0.04445313 2.9659375 -0.03515625 2.046875 C-0.02355469 1.37140625 -0.01195312 0.6959375 0 0 Z " fill="#F9CB5F" transform="translate(458,69)"/>
<path d="M0 0 C4 2 4 2 5 4 C4.9129796 5.71233688 4.75902838 7.42175406 4.5625 9.125 C4.46066406 10.03507812 4.35882813 10.94515625 4.25390625 11.8828125 C4.17011719 12.58148438 4.08632813 13.28015625 4 14 C2.68 14 1.36 14 0 14 C0 9.38 0 4.76 0 0 Z " fill="#EFB639" transform="translate(465,76)"/>
<path d="M0 0 C0.99 0 1.98 0 3 0 C3.02685938 2.14576637 3.04633088 4.29162645 3.0625 6.4375 C3.07410156 7.63246094 3.08570313 8.82742187 3.09765625 10.05859375 C3 13 3 13 2 14 C1.95936168 15.66617115 1.957279 17.33388095 2 19 C1.34 19.33 0.68 19.66 0 20 C-1.19799449 15.85340627 -0.8896192 12.00630953 -0.5625 7.75 C-0.51029297 7.00492188 -0.45808594 6.25984375 -0.40429688 5.4921875 C-0.2751783 3.66105139 -0.13834886 1.83046187 0 0 Z " fill="#D29B32" transform="translate(467,36)"/>
<path d="M0 0 C0.66 0 1.32 0 2 0 C3.26171875 1.87109375 3.26171875 1.87109375 4.6875 4.4375 C7.70760006 9.66488308 11.18701124 14.32965282 15 19 C14.01 19 13.02 19 12 19 C10.5 17.28515625 10.5 17.28515625 9 15.0625 C6.74606985 11.62594582 6.74606985 11.62594582 3 10 C2.34 11.32 1.68 12.64 1 14 C1 11 1 11 2.1875 9.25 C3.36335247 6.7482144 3.36335247 6.7482144 1.625 3.25 C1.08875 2.1775 0.5525 1.105 0 0 Z " fill="#8B6822" transform="translate(439,56)"/>
<path d="M0 0 C1.32 0 2.64 0 4 0 C3.67 4.95 3.34 9.9 3 15 C1.68 14.67 0.36 14.34 -1 14 C-0.67 9.38 -0.34 4.76 0 0 Z " fill="#F9D46A" transform="translate(68,23)"/>
<path d="M0 0 C1.32 0.33 2.64 0.66 4 1 C4 4.63 4 8.26 4 12 C2.68 12 1.36 12 0 12 C0 8.04 0 4.08 0 0 Z " fill="#F9C64D" transform="translate(57,54)"/>
<path d="M0 0 C0.99 0 1.98 0 3 0 C2.98839844 0.89203125 2.97679687 1.7840625 2.96484375 2.703125 C2.95582031 3.87359375 2.94679688 5.0440625 2.9375 6.25 C2.92589844 7.41015625 2.91429687 8.5703125 2.90234375 9.765625 C2.86555499 12.86755399 2.86555499 12.86755399 3.62890625 15.234375 C3.75136719 15.81703125 3.87382812 16.3996875 4 17 C3.34 17.99 2.68 18.98 2 20 C0.2120463 13.1834265 -0.23668569 7.03482474 0 0 Z " fill="#BF892E" transform="translate(436,36)"/>
<path d="M0 0 C0.66 0.33 1.32 0.66 2 1 C2 1.66 2 2.32 2 3 C2.66 3 3.32 3 4 3 C3.21824485 7.84688192 1.60155722 12.3766367 0 17 C-0.33 17 -0.66 17 -1 17 C-1.02684679 14.35409986 -1.04676357 11.70846904 -1.0625 9.0625 C-1.07087891 8.30775391 -1.07925781 7.55300781 -1.08789062 6.77539062 C-1.09652441 4.85005687 -1.05224333 2.92464419 -1 1 C-0.67 0.67 -0.34 0.34 0 0 Z " fill="#E6C890" transform="translate(41,32)"/>
<path d="M0 0 C0.66 0 1.32 0 2 0 C2.22531972 3.29073662 2.42735982 6.58249419 2.625 9.875 C2.68945312 10.81214844 2.75390625 11.74929687 2.8203125 12.71484375 C2.871875 13.61074219 2.9234375 14.50664063 2.9765625 15.4296875 C3.02893066 16.25710449 3.08129883 17.08452148 3.13525391 17.93701172 C3 20 3 20 1 22 C0 21 0 21 -0.11352539 18.95874023 C-0.10828857 18.08419189 -0.10305176 17.20964355 -0.09765625 16.30859375 C-0.09443359 15.36435547 -0.09121094 14.42011719 -0.08789062 13.44726562 C-0.07951172 12.45404297 -0.07113281 11.46082031 -0.0625 10.4375 C-0.05798828 9.44041016 -0.05347656 8.44332031 -0.04882812 7.41601562 C-0.03700007 4.94395151 -0.02051849 2.47200482 0 0 Z " fill="#F8C03F" transform="translate(463,37)"/>
<path d="M0 0 C2.04795423 1.9626228 2.94976638 3.4277307 3.19921875 6.26953125 C3.18858877 8.51954383 3.12958525 10.75385562 3 13 C1.68 13 0.36 13 -1 13 C-1.02686553 11.02090602 -1.04633375 9.04171029 -1.0625 7.0625 C-1.07410156 5.96035156 -1.08570312 4.85820312 -1.09765625 3.72265625 C-1 1 -1 1 0 0 Z " fill="#FADA83" transform="translate(88,25)"/>
<path d="M0 0 C1.98 0 3.96 0 6 0 C4.53400783 3.08779026 2.82973607 5.90467205 0.9375 8.75 C0.14666016 9.94882812 0.14666016 9.94882812 -0.66015625 11.171875 C-1.10230469 11.77515625 -1.54445313 12.3784375 -2 13 C-2.33 13 -2.66 13 -3 13 C-3 11.35 -3 9.7 -3 8 C-2.34 8 -1.68 8 -1 8 C-0.67 5.36 -0.34 2.72 0 0 Z " fill="#855720" transform="translate(475,36)"/>
<path d="M0 0 C2.31 0 4.62 0 7 0 C7.33 3.63 7.66 7.26 8 11 C6.66666667 9.33333333 5.33333333 7.66666667 4 6 C3.2575 5.0925 2.515 4.185 1.75 3.25 C0 1 0 1 0 0 Z " fill="#794B1D" transform="translate(425,36)"/>
<path d="M0 0 C0.99 0 1.98 0 3 0 C2.98839844 0.84304687 2.97679687 1.68609375 2.96484375 2.5546875 C2.95582031 3.65039062 2.94679687 4.74609375 2.9375 5.875 C2.92589844 6.96554688 2.91429687 8.05609375 2.90234375 9.1796875 C2.80255697 11.95177546 2.80255697 11.95177546 4 14 C2.68 14 1.36 14 0 14 C0 9.38 0 4.76 0 0 Z " fill="#EBB237" transform="translate(54,23)"/>
<path d="M0 0 C3 0 3 0 6 2 C6 2.99 6 3.98 6 5 C-0.27 5 -6.54 5 -13 5 C-13 4.67 -13 4.34 -13 4 C-8.71 3.34 -4.42 2.68 0 2 C0 1.34 0 0.68 0 0 Z " fill="#674920" transform="translate(476,87)"/>
<path d="M0 0 C2.4375 0.6875 2.4375 0.6875 5 2 C5.8125 4.625 5.8125 4.625 6 7 C5.01 7.495 5.01 7.495 4 8 C3.34 7.67 2.68 7.34 2 7 C1.67 7.99 1.34 8.98 1 10 C0.67 10 0.34 10 0 10 C0 6.7 0 3.4 0 0 Z " fill="#E9BB5C" transform="translate(77,68)"/>
<path d="M0 0 C1.32 0.33 2.64 0.66 4 1 C3.25 7.75 3.25 7.75 1 10 C0.01 9.01 -0.98 8.02 -2 7 C-1.34 4.69 -0.68 2.38 0 0 Z " fill="#DDAE26" transform="translate(78,25)"/>
<path d="M0 0 C0.33 0.66 0.66 1.32 1 2 C3.02463255 2.65213292 3.02463255 2.65213292 5 3 C5 3.66 5 4.32 5 5 C4.01 5.495 4.01 5.495 3 6 C3.33 7.98 3.66 9.96 4 12 C3.01 12.495 3.01 12.495 2 13 C-0.91360308 8.22169095 -1.19876651 5.44893869 0 0 Z " fill="#E1B71F" transform="translate(77,38)"/>
<path d="M0 0 C0.66 0 1.32 0 2 0 C2.33 2.97 2.66 5.94 3 9 C1.35 9.66 -0.3 10.32 -2 11 C-2.05399736 9.54207116 -2.09279177 8.08357288 -2.125 6.625 C-2.15980469 5.40683594 -2.15980469 5.40683594 -2.1953125 4.1640625 C-2 2 -2 2 0 0 Z " fill="#BC852D" transform="translate(50,30)"/>
<path d="M0 0 C0.66666667 2 1.33333333 4 2 6 C4.31 6.33 6.62 6.66 9 7 C9 7.33 9 7.66 9 8 C4.38 8 -0.24 8 -5 8 C-3.47524303 4.95048605 -2.07114674 2.63600494 0 0 Z " fill="#583615" transform="translate(429,84)"/>
<path d="M0 0 C0.33 0.66 0.66 1.32 1 2 C-0.65 2 -2.3 2 -4 2 C-4 4.97 -4 7.94 -4 11 C-5.32 10.67 -6.64 10.34 -8 10 C-7.67 7.36 -7.34 4.72 -7 2 C-4.69 1.34 -2.38 0.68 0 0 Z " fill="#B5802B" transform="translate(441,79)"/>
<path d="M0 0 C2 1 2 1 4 4 C4.66 3.67 5.32 3.34 6 3 C5.37240135 5.92879371 4.41377341 8.36095629 3 11 C2.01 11 1.02 11 0 11 C0 7.37 0 3.74 0 0 Z " fill="#D7B35A" transform="translate(446,72)"/>
<path d="M0 0 C1.32 0 2.64 0 4 0 C4 2.64 4 5.28 4 8 C2.68 8.33 1.36 8.66 0 9 C0 6.03 0 3.06 0 0 Z " fill="#D19931" transform="translate(437,81)"/>
<path d="M0 0 C0 3 0 3 -1.3125 5.125 C-3.52705178 8.89794007 -4.72018076 12.83377993 -6 17 C-6.33 17 -6.66 17 -7 17 C-7.63043478 8.80434783 -7.63043478 8.80434783 -5.1875 5.6875 C-4.465625 5.130625 -3.74375 4.57375 -3 4 C-1.97676564 2.68441297 -0.96873032 1.35622245 0 0 Z " fill="#62310F" transform="translate(47,43)"/>
<path d="M0 0 C0.33 0 0.66 0 1 0 C1.20140476 3.62528568 0.85776765 5.86501708 -1 9 C-0.34 9.33 0.32 9.66 1 10 C-1.97 12.475 -1.97 12.475 -5 15 C-3.21678322 4.1958042 -3.21678322 4.1958042 0 0 Z " fill="#D2AB67" transform="translate(46,46)"/>
<path d="M0 0 C0.66 0 1.32 0 2 0 C2.02708567 1.60407328 2.04643483 3.2082785 2.0625 4.8125 C2.07410156 5.70582031 2.08570312 6.59914063 2.09765625 7.51953125 C2 10 2 10 1 13 C-0.65 13 -2.3 13 -4 13 C-3.71125 12.154375 -3.4225 11.30875 -3.125 10.4375 C-1.99227296 6.97638959 -0.98175684 3.50627443 0 0 Z M0 6 C1 8 1 8 1 8 Z M-1 8 C0 10 0 10 0 10 Z " fill="#805E19" transform="translate(82,26)"/>
<path d="M0 0 C0.99 0 1.98 0 3 0 C5 3 5 3 5 6 C2.69 6 0.38 6 -2 6 C-1.49396008 3.83125748 -1.00016187 2.00032373 0 0 Z " fill="#A17E3B" transform="translate(425,66)"/>
<path d="M0 0 C4 4.5 4 4.5 4 9 C-0.33273814 9.92844389 -3.66726186 9.92844389 -8 9 C-8 8.67 -8 8.34 -8 8 C-5.36 7.67 -2.72 7.34 0 7 C0 4.69 0 2.38 0 0 Z " fill="#6D4B1B" transform="translate(92,31)"/>
<path d="M0 0 C0.99 0 1.98 0 3 0 C3.66 0.99 4.32 1.98 5 3 C5.66 2.67 6.32 2.34 7 2 C7 4.97 7 7.94 7 11 C6.34 11 5.68 11 5 11 C4.01 8.36 3.02 5.72 2 3 C1.34 3 0.68 3 0 3 C0 2.01 0 1.02 0 0 Z " fill="#795E2C" transform="translate(432,68)"/>
<path d="M0 0 C0.33 0 0.66 0 1 0 C1.06058594 0.56847656 1.12117188 1.13695312 1.18359375 1.72265625 C1.70176573 6.49781037 2.29243859 11.2492305 3 16 C2.34 16.33 1.68 16.66 1 17 C-0.96611502 12.95520612 -1.11331236 10.13114252 -0.625 5.6875 C-0.51414062 4.61886719 -0.40328125 3.55023438 -0.2890625 2.44921875 C-0.14597656 1.23685547 -0.14597656 1.23685547 0 0 Z " fill="#E6AE39" transform="translate(441,43)"/>
<path d="M0 0 C1.984375 1.14453125 1.984375 1.14453125 4 3 C4.390625 5.69921875 4.390625 5.69921875 4.25 8.6875 C4.21390625 9.68136719 4.1778125 10.67523438 4.140625 11.69921875 C4.09421875 12.45847656 4.0478125 13.21773437 4 14 C3.67 13.34 3.34 12.68 3 12 C2.01 11.67 1.02 11.34 0 11 C0.33 10.34 0.66 9.68 1 9 C1.14375422 5.62177584 1.07536348 3.22609045 0 0 Z " fill="#BB9D48" transform="translate(71,39)"/>
<path d="M0 0 C1.9375 0.6875 1.9375 0.6875 4 2 C4.625 4.5625 4.625 4.5625 5 7 C5.66 7.33 6.32 7.66 7 8 C6.67 9.32 6.34 10.64 6 12 C4.99466333 10.37829621 3.99588093 8.75252763 3 7.125 C2.443125 6.22007813 1.88625 5.31515625 1.3125 4.3828125 C0 2 0 2 0 0 Z " fill="#B29C5C" transform="translate(454,76)"/>
<path d="M0 0 C0.66 0.33 1.32 0.66 2 1 C0.02 1.99 0.02 1.99 -2 3 C-1.69964844 3.55429687 -1.39929688 4.10859375 -1.08984375 4.6796875 C-0.70957031 5.40414062 -0.32929687 6.12859375 0.0625 6.875 C0.44535156 7.59429687 0.82820313 8.31359375 1.22265625 9.0546875 C1.47917969 9.69664063 1.73570313 10.33859375 2 11 C1.67 11.66 1.34 12.32 1 13 C0.10577086 11.7636832 -0.76487891 10.51028438 -1.625 9.25 C-2.11226563 8.55390625 -2.59953125 7.8578125 -3.1015625 7.140625 C-4 5 -4 5 -3.2734375 2.796875 C-2 1 -2 1 0 0 Z " fill="#9A8334" transform="translate(82,60)"/>
<path d="M0 0 C0.66 0.66 1.32 1.32 2 2 C1.625 5.125 1.625 5.125 1 8 C0.01 8.33 -0.98 8.66 -2 9 C-3 6 -3 6 -1.5625 2.8125 C-1.046875 1.884375 -0.53125 0.95625 0 0 Z " fill="#CE9F4E" transform="translate(83,73)"/>
<path d="M0 0 C0.99 0 1.98 0 3 0 C3.33 1.98 3.66 3.96 4 6 C2.35 6 0.7 6 -1 6 C-0.67 4.02 -0.34 2.04 0 0 Z " fill="#957838" transform="translate(423,76)"/>
<path d="M0 0 C0.99 0.33 1.98 0.66 3 1 C2.67 5.29 2.34 9.58 2 14 C0.06604999 10.13209997 -0.23289353 8.8499541 -0.125 4.75 C-0.09792969 3.41195312 -0.09792969 3.41195312 -0.0703125 2.046875 C-0.04710937 1.37140625 -0.02390625 0.6959375 0 0 Z " fill="#FBD171" transform="translate(458,69)"/>
<path d="M0 0 C3.59634744 3.49359465 6.83451967 7.11098131 10 11 C9.01 11 8.02 11 7 11 C5.17578125 9.1015625 5.17578125 9.1015625 3.3125 6.625 C2.68988281 5.81289062 2.06726563 5.00078125 1.42578125 4.1640625 C0 2 0 2 0 0 Z " fill="#613214" transform="translate(444,64)"/>
<path d="M0 0 C0.33 0 0.66 0 1 0 C1.06058594 1.03640625 1.12117188 2.0728125 1.18359375 3.140625 C1.26803371 4.51042873 1.35267997 5.88021975 1.4375 7.25 C1.47681641 7.93191406 1.51613281 8.61382812 1.55664062 9.31640625 C1.76666472 12.64448041 2.01934002 15.80255402 3 19 C2.01 19 1.02 19 0 19 C0 12.73 0 6.46 0 0 Z " fill="#FACD5F" transform="translate(460,42)"/>
<path d="M0 0 C1.98 0.495 1.98 0.495 4 1 C3.01 1.495 3.01 1.495 2 2 C1.60843772 4.32506659 1.60843772 4.32506659 1.5 7 C1.34375 9.75 1.34375 9.75 1 12 C0.01 12.495 0.01 12.495 -1 13 C-1.02696365 11.20841511 -1.04637917 9.41671527 -1.0625 7.625 C-1.07410156 6.62726563 -1.08570313 5.62953125 -1.09765625 4.6015625 C-1 2 -1 2 0 0 Z " fill="#E8B036" transform="translate(442,66)"/>
<path d="M0 0 C0.99 0.495 0.99 0.495 2 1 C2.4140625 2.9609375 2.4140625 2.9609375 2.625 5.375 C2.69976562 6.16648437 2.77453125 6.95796875 2.8515625 7.7734375 C2.96749782 9.51246725 3 11.25711002 3 13 C0.75393573 11.22555028 0.04918998 10.41647515 -0.29296875 7.51953125 C-0.25816406 6.62621094 -0.22335937 5.73289062 -0.1875 4.8125 C-0.16042969 3.91144531 -0.13335937 3.01039062 -0.10546875 2.08203125 C-0.07066406 1.39496094 -0.03585937 0.70789062 0 0 Z " fill="#F5CC67" transform="translate(447,57)"/>
<path d="M0 0 C0.99 0.33 1.98 0.66 3 1 C2.67 4.3 2.34 7.6 2 11 C1.34 11 0.68 11 0 11 C0 7.37 0 3.74 0 0 Z " fill="#DDA536" transform="translate(467,78)"/>
<path d="M0 0 C1.875 0.3125 1.875 0.3125 4 1 C4.66 1.99 5.32 2.98 6 4 C5.67 4.99 5.34 5.98 5 7 C1.18461538 4.53846154 1.18461538 4.53846154 0.25 1.8125 C0.1675 1.214375 0.085 0.61625 0 0 Z " fill="#D2B079" transform="translate(40,29)"/>
<path d="M0 0 C0.99 0.33 1.98 0.66 3 1 C2.67 4.3 2.34 7.6 2 11 C1.34 10.67 0.68 10.34 0 10 C0 6.7 0 3.4 0 0 Z " fill="#FBD885" transform="translate(456,67)"/>
<path d="M0 0 C0.99 0 1.98 0 3 0 C2.50639991 4.27786748 1.95216435 7.09567131 0 11 C0 7.37 0 3.74 0 0 Z " fill="#F5E3A7" transform="translate(40,38)"/>
<path d="M0 0 C1.35439668 2.70879335 1.06501451 5.00933268 1 8 C-0.65 8 -2.3 8 -4 8 C-2.87548273 5.0280615 -1.77706209 2.66559313 0 0 Z " fill="#8D6422" transform="translate(431,71)"/>
<path d="M0 0 C0.33 0 0.66 0 1 0 C1 3.63 1 7.26 1 11 C0.01 11 -0.98 11 -2 11 C-1.34 7.37 -0.68 3.74 0 0 Z " fill="#FBCF6A" transform="translate(447,44)"/>
<path d="M0 0 C0.66 1.32 1.32 2.64 2 4 C0.625 6 0.625 6 -1 8 C-1.66 8 -2.32 8 -3 8 C-1.125 1.125 -1.125 1.125 0 0 Z " fill="#82542A" transform="translate(43,43)"/>
<path d="M0 0 C0.66 0.66 1.32 1.32 2 2 C1 5 1 5 0 6 C-0.99 5.67 -1.98 5.34 -3 5 C-3 3.68 -3 2.36 -3 1 C-2.01 0.67 -1.02 0.34 0 0 Z " fill="#A67F45" transform="translate(477,84)"/>
<path d="M0 0 C0.66 0.33 1.32 0.66 2 1 C1.375 2.9375 1.375 2.9375 0 5 C-3.125 5.75 -3.125 5.75 -6 6 C-5.01 5.67 -4.02 5.34 -3 5 C-2.6278958 3.67696283 -2.29369827 2.34262065 -2 1 C-1.34 0.67 -0.68 0.34 0 0 Z " fill="#BF8D37" transform="translate(84,80)"/>
<path d="M0 0 C1.875 0.3125 1.875 0.3125 4 1 C4.66 1.99 5.32 2.98 6 4 C5.67 4.99 5.34 5.98 5 7 C3.29115995 5.37660195 1.62553283 3.70680947 0 2 C0 1.34 0 0.68 0 0 Z " fill="#DED19C" transform="translate(471,79)"/>
<path d="M0 0 C2.375 0.5625 2.375 0.5625 5 2 C6.3125 5.625 6.3125 5.625 7 9 C6.34 9 5.68 9 5 9 C3.35 6.03 1.7 3.06 0 0 Z " fill="#928045" transform="translate(67,77)"/>
<path d="M0 0 C-0.99 1.485 -0.99 1.485 -2 3 C-3.65 2.67 -5.3 2.34 -7 2 C-7 1.34 -7 0.68 -7 0 C-3.86650268 -1.04449911 -3.01031744 -0.93423645 0 0 Z " fill="#B78947" transform="translate(50,24)"/>
<path d="M0 0 C0.33 0 0.66 0 1 0 C1.25 2.25 1.25 2.25 1 5 C-1 7.3125 -1 7.3125 -3 9 C-2.5020163 5.26512223 -2.12508244 3.18762365 0 0 Z " fill="#CF9D3B" transform="translate(46,46)"/>
<path d="M0 0 C2 1 2 1 2 1 Z " fill="#5F3D17" transform="translate(95,41)"/>
<path d="" fill="#472A11" transform="translate(0,0)"/>
<path d="" fill="#4D4533" transform="translate(0,0)"/>
</svg>
