<svg width="100" height="35" viewBox="0 0 145 46" fill="none" xmlns="http://www.w3.org/2000/svg" class="null uk-svg"
    xmlns:xlink="http://www.w3.org/1999/xlink">
    <path fill-rule="evenodd" clip-rule="evenodd"
        d="M22.8651 45.7302C35.4931 45.7302 45.7302 35.4931 45.7302 22.8651C45.7302 10.2371 35.4931 0 22.8651 0C10.2371 0 0 10.2371 0 22.8651C0 35.4931 10.2371 45.7302 22.8651 45.7302ZM34.9917 18.1039L35.6256 18.5151C36.0197 18.7546 36.0129 19.2084 35.9925 19.429V19.5047L35.9449 19.5677C35.0797 20.7204 34.2082 21.9019 33.3603 23.0515L33.3595 23.0525L33.3589 23.0534L33.3586 23.0538L33.3578 23.0549L33.2473 23.2047C32.9797 23.566 32.7122 23.9288 32.4447 24.2916L32.442 24.2952L32.4394 24.2988C32.1719 24.6616 31.9043 25.0244 31.6368 25.3857C30.9811 26.2713 30.3254 27.1585 29.6696 28.0457C29.0139 28.9329 28.3582 29.8201 27.7024 30.7057L22.3207 37.986C22.1916 38.2004 21.9334 38.3327 21.6412 38.3327H21.5732C21.2607 38.3075 21.0092 38.1436 20.9209 37.8915C19.9124 35.2844 18.887 32.643 17.8756 30.0375L17.8746 30.0349C17.4485 28.9372 17.0249 27.8458 16.606 26.7661C16.1525 25.596 15.6948 24.4162 15.2347 23.2302L15.2327 23.2251L15.2317 23.2223L15.2296 23.2169L15.2293 23.2164L15.2293 23.2162C13.8299 19.6088 12.4083 15.9443 11.0136 12.3189L11 12.2748V11.9848L11.0204 11.9344C11.0544 11.8524 11.1223 11.7075 11.2514 11.594L11.333 11.531C11.4077 11.4868 11.4892 11.4553 11.5844 11.4427C11.9105 11.4049 12.2163 11.4805 12.4813 11.5499C12.5629 11.5688 12.6376 11.5877 12.7124 11.6066C14.1801 11.9375 15.6461 12.2684 17.1122 12.5994L17.1182 12.6007C18.5822 12.9312 20.0463 13.2617 21.5121 13.5922L22.362 13.7843C25.3302 14.4553 28.377 15.1442 31.3786 15.8172L31.3922 15.8235C31.5825 15.8803 31.7387 15.9811 31.8746 16.0757C31.9086 16.0946 31.9358 16.1135 31.963 16.1324L31.963 16.1324C32.9743 16.7958 34.004 17.4635 34.9917 18.1039ZM27.8943 21.8604L27.8967 21.8592L27.8977 21.8588L27.8987 21.8583C28.3754 21.6269 28.8494 21.3968 29.3196 21.1693C30.767 20.4633 32.2619 19.7384 33.7569 19.0324C33.3899 18.7992 33.0298 18.566 32.6764 18.3328C32.1872 18.0113 31.6775 17.6835 31.1747 17.3621C31.1184 17.4237 31.0583 17.4783 31.0001 17.5311L31.0001 17.5311C30.981 17.5484 30.9621 17.5656 30.9437 17.5827L30.9437 17.5827C30.8349 17.6835 30.733 17.7781 30.6515 17.8789L30.6311 17.8978L30.2564 18.2698C29.4124 19.1077 28.5589 19.955 27.7364 20.7785L26.6028 21.9056L25.4668 23.0351C26.2803 22.6439 27.0912 22.2503 27.8943 21.8604ZM26.0731 20.866C25.1014 21.843 24.0957 22.8452 23.0968 23.8349C21.1602 21.6539 19.1828 19.4414 17.2666 17.3046C16.8326 16.8202 16.3969 16.3343 15.9612 15.8483L15.9603 15.8474L15.9584 15.8452L15.954 15.8404C15.5189 15.3551 15.0839 14.8699 14.6505 14.3862L14.6437 14.3799C14.5098 14.2386 14.3791 14.0885 14.2493 13.9397L14.2493 13.9396L14.2493 13.9396L14.2492 13.9395C14.188 13.8693 14.127 13.7993 14.0661 13.7306C13.9821 13.631 13.8948 13.5344 13.8066 13.4367L13.8066 13.4367L13.8066 13.4367C13.7664 13.3921 13.726 13.3474 13.6855 13.302C14.4738 13.4911 15.2688 13.6676 16.0503 13.8378C16.7366 13.9891 17.4501 14.1466 18.1499 14.3105C20.1205 14.7549 22.0927 15.1993 24.0649 15.6436C26.0373 16.088 28.0096 16.5324 29.9803 16.9768C28.9607 17.9863 27.937 19.0073 26.9315 20.01L26.9301 20.0115L26.9294 20.0121L26.0731 20.866ZM22.7158 32.5999C22.6946 32.7846 22.6735 32.9685 22.6529 33.151C22.5645 33.8948 22.483 34.6575 22.415 35.4139C22.9586 34.6638 23.5159 33.9137 24.0595 33.1825C24.269 32.8977 24.4837 32.6082 24.6997 32.317L24.7 32.3166C24.9811 31.9376 25.2642 31.5558 25.5408 31.178C26.5143 29.8704 27.4919 28.5472 28.4542 27.245L29.2509 26.1669C30.6643 24.2444 32.1253 22.2714 33.5794 20.3174C31.9826 21.0927 30.3721 21.8743 28.8025 22.6307C27.2262 23.387 25.6568 24.1496 24.0873 24.9122L24.0871 24.9123L24.0866 24.9125C24.0102 24.9551 23.9338 24.987 23.8573 25.0189C23.8318 25.0295 23.8063 25.0402 23.7809 25.0512C23.6925 25.0827 23.611 25.1205 23.5362 25.1583C23.4955 25.7193 23.4275 26.2803 23.3596 26.8224L23.3392 26.9737C23.2698 27.6976 23.1857 28.4351 23.1036 29.1553L23.0606 29.5329C23.0198 29.8816 22.979 30.2416 22.9383 30.6016C22.9179 30.7816 22.8975 30.9616 22.8771 31.1402C22.8279 31.6241 22.7716 32.1146 22.7158 32.5998L22.7158 32.5999ZM13.1802 14.7899C13.1507 14.7143 13.1205 14.6379 13.0903 14.5616L13.0903 14.5615C13.0299 14.4088 12.9695 14.2562 12.9152 14.1091C14.7499 16.164 16.5981 18.2315 18.3989 20.236C18.7092 20.5827 19.0195 20.9287 19.3298 21.2747C19.9504 21.9666 20.571 22.6586 21.1917 23.3561C21.3751 23.5515 21.5586 23.7595 21.7353 23.9612C21.7955 24.0286 21.8558 24.0969 21.9164 24.1656L21.9165 24.1657L21.9166 24.1658C22.0883 24.3603 22.263 24.5582 22.4488 24.7491C22.4001 25.1369 22.3562 25.5268 22.3129 25.9123L22.3128 25.9131C22.2836 26.1729 22.2546 26.4306 22.2245 26.6843C22.1769 27.1255 22.1294 27.5667 22.075 28.0143V28.0206C22.0593 28.2398 22.0313 28.459 22.0038 28.6753C21.9957 28.7389 21.9876 28.8022 21.9799 28.8652C21.9323 29.2497 21.8236 30.1196 21.8236 30.1196L21.8168 30.1637C21.7052 31.3257 21.5709 32.4981 21.4399 33.6427L21.4398 33.643L21.4023 33.9709C21.3689 34.2532 21.3375 34.5393 21.306 34.827C21.2797 35.0662 21.2534 35.3065 21.2256 35.5467C21.2048 35.4887 21.1813 35.4306 21.1585 35.374L21.1584 35.3737C21.1441 35.3383 21.13 35.3034 21.1169 35.2694C21.015 35.0173 20.9131 34.7525 20.8179 34.4941L20.0908 32.622C19.3285 30.6549 18.5661 28.6884 17.8038 26.7219L17.7877 26.6804C16.2518 22.7187 14.716 18.7571 13.1802 14.7899Z"
        fill="#969696"></path>
    <path
        d="M70.3525 12.1829L65.4307 40.6204H59.2197L64.1611 12.1829H70.3525ZM78.751 12.1829L77.8916 17.1243H55.0596L55.9385 12.1829H78.751ZM83.8877 24.7415L81.1338 40.6204H75.1768L78.8486 19.4875H84.415L83.8877 24.7415ZM90.7822 19.3118L90.04 24.9954C89.7015 24.9433 89.3695 24.8977 89.0439 24.8586C88.7184 24.8196 88.3864 24.8 88.0479 24.8C87.3057 24.787 86.6351 24.8782 86.0361 25.0735C85.4502 25.2558 84.9359 25.5357 84.4932 25.9133C84.0635 26.2909 83.7054 26.7597 83.4189 27.3196C83.1325 27.8665 82.9176 28.4915 82.7744 29.1946L81.6807 28.6477C81.8239 27.6451 82.0452 26.5904 82.3447 25.4836C82.6442 24.3639 83.0609 23.3157 83.5947 22.3391C84.1416 21.3495 84.8382 20.5553 85.6846 19.9563C86.5439 19.3443 87.5986 19.0383 88.8486 19.0383C89.1742 19.0383 89.4932 19.0644 89.8057 19.1165C90.1312 19.1685 90.4567 19.2336 90.7822 19.3118ZM89.9424 30.386L89.9814 29.9758C90.1507 28.4654 90.5218 27.0461 91.0947 25.718C91.6676 24.3899 92.4294 23.2245 93.3799 22.2219C94.3304 21.2193 95.4502 20.4381 96.7393 19.8782C98.0283 19.3183 99.4736 19.0579 101.075 19.0969C102.612 19.123 103.94 19.429 105.06 20.0149C106.192 20.5878 107.117 21.3691 107.833 22.3586C108.549 23.3482 109.057 24.481 109.356 25.7571C109.656 27.0331 109.741 28.3873 109.61 29.8196L109.571 30.2493C109.402 31.7467 109.024 33.1529 108.438 34.468C107.853 35.7831 107.084 36.9355 106.134 37.925C105.183 38.9146 104.063 39.6894 102.774 40.2493C101.485 40.7961 100.047 41.05 98.458 41.011C96.9346 40.9849 95.6064 40.6855 94.4736 40.1125C93.3538 39.5396 92.4359 38.7649 91.7197 37.7883C91.0036 36.8118 90.4958 35.692 90.1963 34.429C89.8968 33.1659 89.8122 31.8183 89.9424 30.386ZM95.9385 29.9758L95.8994 30.386C95.8604 30.9719 95.8408 31.6034 95.8408 32.2805C95.8538 32.9446 95.945 33.5826 96.1143 34.1946C96.2965 34.8066 96.596 35.3079 97.0127 35.6985C97.4424 36.0761 98.0413 36.2779 98.8096 36.304C99.6429 36.33 100.346 36.1607 100.919 35.7961C101.492 35.4316 101.961 34.9433 102.325 34.3313C102.703 33.7063 102.989 33.0357 103.185 32.3196C103.393 31.6034 103.53 30.9068 103.595 30.2297L103.634 29.8196C103.686 29.2467 103.705 28.6217 103.692 27.9446C103.692 27.2545 103.601 26.6034 103.419 25.9915C103.25 25.3665 102.95 24.8586 102.521 24.468C102.091 24.0644 101.492 23.8495 100.724 23.8235C99.8903 23.7974 99.1807 23.9732 98.5947 24.3508C98.0218 24.7284 97.5531 25.2297 97.1885 25.8547C96.8239 26.4797 96.5439 27.1568 96.3486 27.886C96.1533 28.6021 96.0166 29.2987 95.9385 29.9758ZM119.493 24.3313L116.642 40.6204H110.685L114.356 19.4875H119.923L119.493 24.3313ZM117.872 29.3118L116.524 29.3704C116.655 28.1073 116.928 26.8573 117.345 25.6204C117.761 24.3834 118.334 23.2701 119.063 22.2805C119.806 21.2779 120.717 20.4902 121.798 19.9172C122.879 19.3313 124.148 19.0514 125.606 19.0774C126.778 19.1165 127.742 19.3704 128.497 19.8391C129.265 20.2948 129.851 20.9068 130.255 21.675C130.672 22.4303 130.938 23.2896 131.056 24.2532C131.173 25.2037 131.173 26.1933 131.056 27.2219L128.829 40.6204H122.833L125.099 27.1633C125.164 26.5253 125.144 25.9524 125.04 25.4446C124.936 24.9368 124.695 24.5461 124.317 24.2727C123.953 23.9862 123.406 23.83 122.677 23.804C121.896 23.7909 121.225 23.9472 120.665 24.2727C120.105 24.5852 119.636 25.0149 119.259 25.5618C118.881 26.0956 118.582 26.6946 118.36 27.3586C118.152 28.0097 117.989 28.6607 117.872 29.3118Z"
        fill="#969696"></path>
</svg>