
<svg class="icon" xmlns="http://www.w3.org/2000/svg"
    xmlns:xlink="http://www.w3.org/1999/xlink" width="16px" height="16px">
    <path fill-rule="evenodd" fill="rgb(107, 150, 78)"
        d="M7.766,16.000 C3.477,16.000 0.000,12.523 0.000,8.234 C0.000,3.945 3.477,0.469 7.766,0.469 C12.055,0.469 15.532,3.945 15.532,8.234 C15.532,12.523 12.055,16.000 7.766,16.000 ZM7.766,2.022 C4.335,2.022 1.553,4.803 1.553,8.234 C1.553,11.665 4.335,14.447 7.766,14.447 C11.197,14.447 13.978,11.665 13.978,8.234 C13.978,4.803 11.197,2.022 7.766,2.022 ZM7.152,10.952 C7.151,10.954 7.149,10.955 7.148,10.957 C6.843,11.259 6.352,11.257 6.050,10.952 L4.108,9.011 C3.795,8.706 3.788,8.206 4.093,7.893 C4.397,7.579 4.898,7.573 5.211,7.877 L6.601,9.275 L10.321,5.547 L10.321,5.578 C10.625,5.274 11.119,5.274 11.423,5.578 C11.728,5.883 11.728,6.377 11.423,6.681 L7.152,10.952 Z" />
</svg>