
<svg class="icon" xmlns="http://www.w3.org/2000/svg"
    xmlns:xlink="http://www.w3.org/1999/xlink" width="17px" height="17px">
    <path fill-rule="evenodd" fill="rgb(207, 188, 139)"
        d="M8.631,16.223 C4.342,16.223 0.865,12.747 0.865,8.458 C0.865,4.169 4.342,0.692 8.631,0.692 C12.920,0.692 16.397,4.169 16.397,8.458 C16.397,12.747 12.920,16.223 8.631,16.223 ZM8.631,2.245 C5.200,2.245 2.419,5.027 2.419,8.458 C2.419,11.889 5.200,14.670 8.631,14.670 C12.062,14.670 14.844,11.889 14.844,8.458 C14.844,5.027 12.062,2.245 8.631,2.245 ZM8.926,12.278 C8.738,12.361 8.524,12.361 8.336,12.278 C8.242,12.236 8.155,12.178 8.080,12.108 C7.936,11.963 7.855,11.768 7.855,11.564 C7.851,11.457 7.872,11.351 7.917,11.253 C7.955,11.161 8.010,11.076 8.080,11.005 C8.262,10.820 8.524,10.739 8.779,10.787 L8.926,10.857 L9.066,10.927 L9.183,11.028 C9.251,11.095 9.306,11.174 9.346,11.261 C9.386,11.357 9.408,11.460 9.408,11.564 C9.407,11.768 9.326,11.963 9.183,12.108 C9.107,12.178 9.021,12.236 8.926,12.278 ZM8.631,10.011 C8.202,10.011 7.855,9.663 7.855,9.234 L7.855,5.351 C7.855,4.923 8.202,4.575 8.631,4.575 C9.060,4.575 9.408,4.923 9.408,5.351 L9.408,9.234 C9.408,9.663 9.060,10.011 8.631,10.011 Z" />
</svg>