<svg width="128" height="45" viewBox="0 0 195 46" fill="none" xmlns="http://www.w3.org/2000/svg" class="null uk-svg"
    xmlns:xlink="http://www.w3.org/1999/xlink">
    <path
        d="M61.375 38H56.3125L56.9688 34.3438L61.5156 34.375C62.9323 34.375 64.125 34.0417 65.0938 33.375C66.0625 32.6979 66.8229 31.8125 67.375 30.7188C67.9375 29.6146 68.3177 28.4219 68.5156 27.1406L68.6562 26.0312C68.75 25.2396 68.7812 24.4375 68.75 23.625C68.7188 22.8021 68.5677 22.0417 68.2969 21.3438C68.0365 20.6458 67.6198 20.0781 67.0469 19.6406C66.474 19.2031 65.6979 18.9688 64.7188 18.9375L59.5312 18.9219L60.1719 15.25L64.8594 15.2656C66.3802 15.2969 67.7031 15.6094 68.8281 16.2031C69.9531 16.7865 70.875 17.5781 71.5938 18.5781C72.3125 19.5781 72.8125 20.724 73.0938 22.0156C73.375 23.2969 73.4323 24.6458 73.2656 26.0625L73.1406 27.1719C72.9323 28.6927 72.5 30.1146 71.8438 31.4375C71.1979 32.7604 70.3594 33.9167 69.3281 34.9062C68.3073 35.8854 67.125 36.651 65.7812 37.2031C64.4375 37.7448 62.9688 38.0104 61.375 38ZM62.8594 15.25L58.9062 38H54.3281L58.2656 15.25H62.8594ZM75.0156 29.8125L75.0625 29.4844C75.1875 28.2865 75.474 27.1615 75.9219 26.1094C76.3802 25.0469 76.9844 24.1146 77.7344 23.3125C78.4948 22.5 79.3854 21.8698 80.4062 21.4219C81.4375 20.9635 82.5938 20.75 83.875 20.7812C85.0938 20.8021 86.1458 21.0469 87.0312 21.5156C87.9167 21.9844 88.6406 22.6146 89.2031 23.4062C89.776 24.1979 90.1771 25.1042 90.4062 26.125C90.6458 27.1458 90.7135 28.224 90.6094 29.3594L90.5781 29.7031C90.4427 30.8906 90.1406 32.0104 89.6719 33.0625C89.2135 34.1042 88.6042 35.026 87.8438 35.8281C87.0938 36.6198 86.2031 37.2396 85.1719 37.6875C84.1406 38.1354 82.9948 38.3438 81.7344 38.3125C80.5365 38.2917 79.4896 38.0521 78.5938 37.5938C77.6979 37.125 76.9688 36.5 76.4062 35.7188C75.8438 34.9271 75.4479 34.026 75.2188 33.0156C74.9896 32.0052 74.9219 30.9375 75.0156 29.8125ZM79.4531 29.4844L79.4219 29.8281C79.3698 30.3281 79.3542 30.8646 79.375 31.4375C79.3958 32 79.4844 32.5365 79.6406 33.0469C79.8073 33.5573 80.0781 33.974 80.4531 34.2969C80.8281 34.6198 81.3438 34.7917 82 34.8125C82.6979 34.8333 83.2969 34.6927 83.7969 34.3906C84.2969 34.0885 84.7083 33.6823 85.0312 33.1719C85.3542 32.651 85.6094 32.0885 85.7969 31.4844C85.9844 30.8698 86.1094 30.2708 86.1719 29.6875L86.2031 29.3594C86.2448 28.8594 86.2552 28.3229 86.2344 27.75C86.224 27.1667 86.1354 26.6198 85.9688 26.1094C85.8021 25.5885 85.5312 25.1615 85.1562 24.8281C84.7812 24.4948 84.2656 24.3177 83.6094 24.2969C82.9115 24.2656 82.3125 24.4115 81.8125 24.7344C81.3125 25.0469 80.901 25.4635 80.5781 25.9844C80.2552 26.5052 80 27.0729 79.8125 27.6875C79.6354 28.3021 79.5156 28.901 79.4531 29.4844ZM105.062 21.0938H109.094L106.297 37.4219C106.089 38.974 105.573 40.2969 104.75 41.3906C103.927 42.4844 102.88 43.3125 101.609 43.875C100.349 44.4375 98.9479 44.7031 97.4062 44.6719C96.6562 44.651 95.9167 44.5365 95.1875 44.3281C94.4583 44.1198 93.776 43.8125 93.1406 43.4062C92.5052 43.0104 91.9531 42.5156 91.4844 41.9219L93.6562 39.3281C94.1146 39.9323 94.6562 40.401 95.2812 40.7344C95.9062 41.0781 96.599 41.2604 97.3594 41.2812C98.1719 41.3021 98.8906 41.1562 99.5156 40.8438C100.141 40.5312 100.656 40.0885 101.062 39.5156C101.469 38.9427 101.74 38.2604 101.875 37.4688L104.031 24.7812L105.062 21.0938ZM92.5781 29.8594L92.625 29.5312C92.75 28.4688 93 27.4167 93.375 26.375C93.75 25.3229 94.2552 24.3698 94.8906 23.5156C95.526 22.6615 96.3021 21.9844 97.2188 21.4844C98.1354 20.9844 99.2031 20.75 100.422 20.7812C101.547 20.8125 102.458 21.0938 103.156 21.625C103.854 22.1458 104.385 22.8281 104.75 23.6719C105.115 24.5052 105.354 25.4115 105.469 26.3906C105.594 27.3698 105.635 28.3229 105.594 29.25L105.516 29.9844C105.349 30.9219 105.073 31.8854 104.688 32.875C104.302 33.8646 103.802 34.7812 103.188 35.625C102.573 36.4583 101.833 37.125 100.969 37.625C100.115 38.125 99.1406 38.3594 98.0469 38.3281C96.9115 38.2969 95.9688 38.0208 95.2188 37.5C94.4792 36.9792 93.8958 36.3073 93.4688 35.4844C93.0521 34.651 92.776 33.7448 92.6406 32.7656C92.5052 31.776 92.4844 30.8073 92.5781 29.8594ZM97.0312 29.5156L96.9844 29.8594C96.9323 30.3281 96.9115 30.8438 96.9219 31.4062C96.9427 31.9583 97.026 32.4896 97.1719 33C97.3281 33.5104 97.5833 33.9323 97.9375 34.2656C98.2917 34.5885 98.7812 34.7604 99.4062 34.7812C100.229 34.8229 100.932 34.651 101.516 34.2656C102.109 33.8802 102.583 33.3698 102.938 32.7344C103.292 32.0885 103.536 31.4062 103.672 30.6875L103.969 28.6094C104.01 28.1094 104.005 27.6094 103.953 27.1094C103.901 26.6094 103.776 26.151 103.578 25.7344C103.391 25.3177 103.109 24.9792 102.734 24.7188C102.37 24.4583 101.885 24.3229 101.281 24.3125C100.583 24.2812 99.9792 24.4271 99.4688 24.75C98.9688 25.0729 98.5521 25.5 98.2188 26.0312C97.8854 26.5521 97.6198 27.1198 97.4219 27.7344C97.224 28.349 97.0938 28.9427 97.0312 29.5156ZM117.469 38.3125C116.312 38.2917 115.271 38.0729 114.344 37.6562C113.417 37.2292 112.641 36.6458 112.016 35.9062C111.401 35.1667 110.948 34.3073 110.656 33.3281C110.365 32.349 110.26 31.2969 110.344 30.1719L110.406 29.5312C110.531 28.3542 110.818 27.2344 111.266 26.1719C111.714 25.1094 112.312 24.1719 113.062 23.3594C113.812 22.5365 114.698 21.8958 115.719 21.4375C116.75 20.9688 117.896 20.75 119.156 20.7812C120.333 20.8021 121.339 21.0417 122.172 21.5C123.005 21.9583 123.677 22.5729 124.188 23.3438C124.698 24.1146 125.047 24.9948 125.234 25.9844C125.422 26.9635 125.458 27.9896 125.344 29.0625L125.094 30.9375H112.031L112.516 27.9375L121.141 27.9531L121.219 27.5625C121.302 26.9896 121.276 26.4583 121.141 25.9688C121.005 25.4688 120.75 25.0677 120.375 24.7656C120 24.4635 119.5 24.3021 118.875 24.2812C118.156 24.2604 117.552 24.4115 117.062 24.7344C116.573 25.0573 116.172 25.4844 115.859 26.0156C115.547 26.5469 115.307 27.125 115.141 27.75C114.974 28.3646 114.854 28.9583 114.781 29.5312L114.719 30.1562C114.667 30.7083 114.682 31.2604 114.766 31.8125C114.849 32.3542 115.01 32.8438 115.25 33.2812C115.5 33.7188 115.839 34.0729 116.266 34.3438C116.703 34.6146 117.25 34.7604 117.906 34.7812C118.74 34.8021 119.505 34.6406 120.203 34.2969C120.911 33.9427 121.547 33.474 122.109 32.8906L124.078 35.2656C123.609 35.974 123.01 36.5573 122.281 37.0156C121.562 37.4635 120.786 37.7917 119.953 38C119.12 38.2188 118.292 38.3229 117.469 38.3125ZM141.094 30.6094L144.844 30.5625C144.594 32.1875 144.016 33.5885 143.109 34.7656C142.214 35.9323 141.089 36.8281 139.734 37.4531C138.38 38.0677 136.891 38.3542 135.266 38.3125C133.776 38.2812 132.526 37.9531 131.516 37.3281C130.505 36.7031 129.714 35.8802 129.141 34.8594C128.568 33.8281 128.188 32.6823 128 31.4219C127.823 30.1615 127.823 28.8802 128 27.5781L128.266 25.6875C128.474 24.2917 128.854 22.9427 129.406 21.6406C129.958 20.3385 130.677 19.1771 131.562 18.1562C132.458 17.1354 133.521 16.3385 134.75 15.7656C135.979 15.1823 137.37 14.9062 138.922 14.9375C140.516 14.9688 141.854 15.3177 142.938 15.9844C144.031 16.6406 144.87 17.5521 145.453 18.7188C146.036 19.8854 146.354 21.2396 146.406 22.7812L142.609 22.7656C142.609 21.8698 142.484 21.0729 142.234 20.375C141.995 19.6771 141.594 19.125 141.031 18.7188C140.469 18.3125 139.698 18.0938 138.719 18.0625C137.656 18.0312 136.74 18.2344 135.969 18.6719C135.198 19.1094 134.547 19.7031 134.016 20.4531C133.495 21.2031 133.083 22.0365 132.781 22.9531C132.479 23.8594 132.26 24.7604 132.125 25.6562L131.844 27.5938C131.74 28.3438 131.688 29.151 131.688 30.0156C131.688 30.8802 131.792 31.6979 132 32.4688C132.219 33.2396 132.599 33.8802 133.141 34.3906C133.693 34.8906 134.469 35.1562 135.469 35.1875C136.51 35.2292 137.401 35.0677 138.141 34.7031C138.891 34.3385 139.505 33.8073 139.984 33.1094C140.474 32.4115 140.844 31.5781 141.094 30.6094ZM147.547 29.8281L147.594 29.4688C147.719 28.3021 148.005 27.1927 148.453 26.1406C148.901 25.0885 149.495 24.1562 150.234 23.3438C150.984 22.5208 151.865 21.8802 152.875 21.4219C153.896 20.9635 155.031 20.75 156.281 20.7812C157.49 20.8021 158.526 21.0521 159.391 21.5312C160.266 22.0104 160.974 22.651 161.516 23.4531C162.068 24.2448 162.453 25.151 162.672 26.1719C162.891 27.1823 162.948 28.2396 162.844 29.3438L162.812 29.7031C162.677 30.8698 162.38 31.974 161.922 33.0156C161.474 34.0573 160.875 34.9844 160.125 35.7969C159.385 36.599 158.505 37.2292 157.484 37.6875C156.474 38.1354 155.349 38.3438 154.109 38.3125C152.911 38.2917 151.875 38.0469 151 37.5781C150.135 37.099 149.427 36.4635 148.875 35.6719C148.333 34.8802 147.953 33.9844 147.734 32.9844C147.516 31.974 147.453 30.9219 147.547 29.8281ZM151.25 29.4688L151.219 29.8281C151.167 30.401 151.161 31.0052 151.203 31.6406C151.245 32.276 151.37 32.8698 151.578 33.4219C151.786 33.974 152.109 34.4271 152.547 34.7812C152.984 35.1354 153.568 35.3229 154.297 35.3438C155.068 35.3646 155.74 35.2083 156.312 34.875C156.885 34.5417 157.365 34.0938 157.75 33.5312C158.135 32.9688 158.443 32.3542 158.672 31.6875C158.901 31.0104 159.052 30.349 159.125 29.7031L159.156 29.3438C159.219 28.7812 159.229 28.1823 159.188 27.5469C159.146 26.901 159.021 26.2969 158.812 25.7344C158.604 25.1615 158.281 24.6979 157.844 24.3438C157.406 23.9792 156.823 23.7865 156.094 23.7656C155.312 23.7448 154.635 23.9062 154.062 24.25C153.49 24.5833 153.01 25.0365 152.625 25.6094C152.24 26.1823 151.932 26.8073 151.703 27.4844C151.484 28.1615 151.333 28.8229 151.25 29.4688ZM171.266 21.0938L168.328 38H164.656L167.594 21.0938H171.266ZM168.109 16.7188C168.099 16.1146 168.297 15.6198 168.703 15.2344C169.109 14.849 169.609 14.651 170.203 14.6406C170.776 14.6302 171.266 14.8073 171.672 15.1719C172.089 15.526 172.297 16 172.297 16.5938C172.307 17.1979 172.104 17.6875 171.688 18.0625C171.281 18.4375 170.786 18.6302 170.203 18.6406C169.63 18.651 169.141 18.4844 168.734 18.1406C168.328 17.7865 168.12 17.3125 168.109 16.7188ZM178.219 24.9219L175.953 38H172.266L175.203 21.0938H178.656L178.219 24.9219ZM176.922 28.9219L175.797 28.9375C175.922 27.9271 176.167 26.9323 176.531 25.9531C176.906 24.9635 177.401 24.0781 178.016 23.2969C178.63 22.5052 179.375 21.8802 180.25 21.4219C181.135 20.9635 182.156 20.75 183.312 20.7812C184.229 20.8021 184.99 20.9844 185.594 21.3281C186.208 21.6719 186.682 22.1354 187.016 22.7188C187.359 23.3021 187.583 23.9688 187.688 24.7188C187.792 25.4688 187.797 26.2552 187.703 27.0781L185.891 38H182.188L184.031 27.0312C184.094 26.4271 184.073 25.8854 183.969 25.4062C183.865 24.9167 183.635 24.5312 183.281 24.25C182.927 23.9583 182.417 23.8073 181.75 23.7969C181.021 23.776 180.38 23.9115 179.828 24.2031C179.276 24.4948 178.802 24.8958 178.406 25.4062C178.01 25.9062 177.688 26.4635 177.438 27.0781C177.198 27.6927 177.026 28.3073 176.922 28.9219Z"
        fill="#969696"></path>
    <path fill-rule="evenodd" clip-rule="evenodd"
        d="M22.8651 45.7302C35.4931 45.7302 45.7302 35.4931 45.7302 22.8651C45.7302 10.2371 35.4931 0 22.8651 0C10.2371 0 0 10.2371 0 22.8651C0 35.4931 10.2371 45.7302 22.8651 45.7302ZM23.0891 12.0129L22.6438 12.0011L15.6353 12V21.7937H13V24.1926H15.6355V33.9857L23.1299 33.987L23.2977 33.9953L23.5302 34L23.81 33.9979L24.0397 33.9907L24.3869 33.9709L24.6753 33.9468L24.8796 33.9254L25.2027 33.8846L25.4283 33.8508L25.7801 33.7894L26.0228 33.7406L26.2711 33.6852C26.313 33.6754 26.355 33.6653 26.3973 33.6548L26.6531 33.5886L26.913 33.5146L27.1764 33.4324L27.4426 33.3418L27.7111 33.2421L27.9811 33.1331L28.252 33.0143C28.5232 32.8905 28.7947 32.7514 29.0638 32.5952L29.332 32.4332C31.6027 31.0065 33.625 28.2982 33.625 23.1766C33.625 17.4077 31.0891 14.6143 28.3722 13.2628L28.0697 13.1184C27.8172 13.003 27.5638 12.8994 27.3116 12.8065L27.0095 12.7C26.9593 12.6831 26.9091 12.6666 26.8591 12.6505L26.5599 12.5585L26.2635 12.4756L25.9706 12.4012C25.9222 12.3895 25.8739 12.3782 25.8258 12.3671L25.5396 12.3048L25.2587 12.2499L24.9839 12.202L24.5845 12.1421L24.328 12.1095L24.08 12.0822L23.7256 12.0503L23.5021 12.0343L23.0891 12.0129ZM19.8467 16.0637H22.7964L22.994 16.0677L23.1815 16.0777L23.3234 16.0887L23.5594 16.1131L23.7307 16.1354L23.9122 16.1633L24.1028 16.1971L24.3017 16.2376L24.5079 16.2853L24.7205 16.3406C24.7564 16.3505 24.7925 16.3607 24.8288 16.3713L25.0492 16.4393C25.0863 16.4513 25.1236 16.4638 25.161 16.4766L25.3871 16.5583L25.6158 16.65C25.7307 16.6984 25.8461 16.7507 25.9617 16.8073L26.1929 16.9261C27.8486 17.8197 29.4544 19.6252 29.4592 23.2557C29.4639 26.843 27.8492 28.5001 26.2148 29.2655L25.9868 29.3666L25.7595 29.4567C25.6462 29.4992 25.5335 29.5377 25.422 29.5728L25.2007 29.6383L24.9835 29.6951C24.9477 29.7038 24.9121 29.7123 24.8767 29.7204L24.6674 29.7652L24.4647 29.8028L24.2694 29.8339L23.9926 29.8696L23.738 29.894L23.372 29.9155L23.0475 29.9217L19.8467 29.9217V24.1923H24.4875V21.7934H19.8467V16.0637Z"
        fill="#969696"></path>
</svg>