<svg width="119" height="42" viewBox="0 0 179 47" fill="none" xmlns="http://www.w3.org/2000/svg" class="null uk-svg"
    xmlns:xlink="http://www.w3.org/1999/xlink">
    <path
        d="M22.81 0C10.1807 0 0 10.5618 0 23.5C0 36.4382 10.1807 47 22.81 47C35.4392 47 45.6199 36.4382 45.6199 23.5C45.6199 10.4298 35.5681 0 22.81 0ZM32.7329 34.0618H13.2736L15.3355 26.2725L12.5004 27.3286L13.2736 24.1601L16.1087 22.9719L19.5882 10.0337H26.8049L24.2275 20.0674L27.4492 18.7472L26.8049 21.7837L23.4543 23.1039L21.9078 29.441L33.8927 29.309L32.7329 34.0618ZM55.0274 39.3427V9.24157H57.7336V39.2106L55.0274 39.3427ZM62.7595 13.8624C61.9863 13.0702 61.9863 11.882 62.7595 11.0899C63.5328 10.2977 64.6926 10.2977 65.4658 11.0899C66.239 11.882 66.239 13.0702 65.4658 13.8624C64.6926 14.6545 63.6616 14.6545 62.7595 13.8624ZM62.7595 39.3427V18.7472H65.4658V39.3427H62.7595ZM81.3168 21.3876H75.5176V33.7978C75.5176 37.3624 77.4507 37.0983 81.3168 36.8343V39.2106C75.6465 40.0028 72.9403 38.5506 72.9403 33.7978V21.2556H68.6876V18.6152H72.9403V13.7303L75.6465 12.9382V18.7472H81.4456V21.3876H81.3168ZM100.647 21.6517C102.451 23.764 103.353 26.4045 103.353 29.177C103.353 29.441 103.354 29.9691 103.225 30.4972H85.6983C86.2138 34.5899 89.4356 37.3623 93.6883 37.3623C96.7811 37.3623 98.9719 35.9101 100.132 33.7978L102.451 35.25C100.647 38.1545 97.5544 40.0028 93.5594 40.0028C90.3377 40.0028 87.8891 38.9466 85.8272 36.9663C83.8942 34.986 82.8632 32.3455 82.8632 29.177C82.8632 26.1405 83.8942 23.5 85.8272 21.5196C87.7603 19.5393 90.2088 18.4831 93.4305 18.4831C96.2657 18.3511 98.7142 19.4073 100.647 21.6517ZM85.5695 27.8567H100.518C100.261 25.6124 99.4874 24.0281 98.0698 22.8399C96.6523 21.6517 95.1058 20.9916 93.3017 20.9916C89.1778 20.9916 86.2138 23.764 85.5695 27.8567ZM108.766 36.8343C106.833 34.7219 105.802 32.2135 105.802 29.0449C105.802 25.8764 106.833 23.368 108.766 21.2556C110.828 19.1433 113.405 18.0871 116.369 18.0871C120.235 18.0871 123.715 20.0674 125.39 23.368L121.009 26.0084C120.235 24.2921 118.56 23.236 116.369 23.236C113.276 23.236 110.957 25.6123 110.957 28.9129C110.957 30.4972 111.472 31.9494 112.503 33.0056C113.534 34.0618 114.823 34.5899 116.369 34.5899C118.431 34.5899 120.235 33.5337 121.009 31.8174L125.519 34.4579C123.715 37.7584 120.364 39.7388 116.498 39.7388C113.405 40.0028 110.828 38.9466 108.766 36.8343ZM136.86 40.0028C133.896 40.0028 131.318 38.9466 129.256 36.8343C127.194 34.7219 126.163 32.0815 126.163 29.0449C126.163 26.0084 127.194 23.5 129.256 21.3876C131.318 19.2753 133.896 18.2191 136.86 18.2191C139.824 18.2191 142.401 19.2753 144.463 21.3876C146.525 23.5 147.556 26.0084 147.556 29.0449C147.556 32.0815 146.525 34.7219 144.463 36.8343C142.53 38.9466 139.952 40.0028 136.86 40.0028ZM136.86 34.8539C138.406 34.8539 139.695 34.3258 140.726 33.2696C141.757 32.2135 142.272 30.8933 142.272 29.177C142.272 27.4607 141.757 26.1404 140.726 25.0843C139.695 24.0281 138.406 23.5 136.86 23.5C135.313 23.5 134.024 24.0281 132.994 25.0843C131.963 26.1404 131.447 27.4607 131.447 29.177C131.447 30.8933 131.963 32.2135 132.994 33.2696C134.153 34.1938 135.442 34.8539 136.86 34.8539ZM150.262 13.0702C150.262 11.3539 151.68 9.76965 153.484 9.76965C155.288 9.76965 156.706 11.2219 156.706 13.0702C156.706 14.7865 155.288 16.3708 153.484 16.3708C151.68 16.3708 150.262 14.9185 150.262 13.0702ZM150.906 39.3427V18.7472H156.061V39.3427H150.906ZM176.809 20.4635C178.227 21.9157 179 24.0281 179 26.6685V39.3427H173.845V27.4607C173.845 24.6882 172.299 23.236 169.85 23.236C167.144 23.236 165.469 24.9522 165.469 28.2528V39.3427H160.314V18.8792H165.469V21.1236C166.757 19.1433 168.69 18.2191 171.397 18.2191C173.587 18.2191 175.392 19.0112 176.809 20.4635Z"
        fill="#969696"></path>
</svg>