<svg width="108" height="38" viewBox="0 0 153 46" fill="none" xmlns="http://www.w3.org/2000/svg" class="null uk-svg"
    xmlns:xlink="http://www.w3.org/1999/xlink">
    <path
        d="M68.2188 37H61.8906L62.7109 32.4297L68.3945 32.4688C70.1654 32.4688 71.6562 32.0521 72.8672 31.2188C74.0781 30.3724 75.0286 29.2656 75.7188 27.8984C76.4219 26.5182 76.8971 25.0273 77.1445 23.4258L77.3203 22.0391C77.4375 21.0495 77.4766 20.0469 77.4375 19.0312C77.3984 18.0026 77.2096 17.0521 76.8711 16.1797C76.5456 15.3073 76.0247 14.5977 75.3086 14.0508C74.5924 13.5039 73.6224 13.2109 72.3984 13.1719L65.9141 13.1523L66.7148 8.5625L72.5742 8.58203C74.4753 8.62109 76.1289 9.01172 77.5352 9.75391C78.9414 10.4831 80.0938 11.4727 80.9922 12.7227C81.8906 13.9727 82.5156 15.4049 82.8672 17.0195C83.2188 18.6211 83.2904 20.3073 83.082 22.0781L82.9258 23.4648C82.6654 25.3659 82.125 27.1432 81.3047 28.7969C80.4974 30.4505 79.4492 31.8958 78.1602 33.1328C76.8841 34.3568 75.4062 35.3138 73.7266 36.0039C72.0469 36.681 70.2109 37.013 68.2188 37ZM70.0742 8.5625L65.1328 37H59.4102L64.332 8.5625H70.0742ZM96.2656 32.2344L97.75 22.7617C97.8151 22.1888 97.7891 21.6549 97.6719 21.1602C97.5547 20.6654 97.3138 20.2747 96.9492 19.9883C96.5977 19.6888 96.0964 19.526 95.4453 19.5C94.8594 19.487 94.332 19.5911 93.8633 19.8125C93.4076 20.0208 93.0299 20.3268 92.7305 20.7305C92.431 21.1211 92.2227 21.5898 92.1055 22.1367L86.5977 22.1758C86.6628 21.0039 86.9883 19.9948 87.5742 19.1484C88.1732 18.2891 88.9284 17.5859 89.8398 17.0391C90.7513 16.4922 91.7409 16.0885 92.8086 15.8281C93.8893 15.5677 94.944 15.4505 95.9727 15.4766C97.444 15.5026 98.7526 15.8086 99.8984 16.3945C101.057 16.9805 101.943 17.8203 102.555 18.9141C103.18 19.9948 103.414 21.3099 103.258 22.8594L101.793 31.9219C101.676 32.6771 101.585 33.4714 101.52 34.3047C101.454 35.125 101.572 35.9062 101.871 36.6484L101.832 37L96.4414 37.0195C96.194 36.2513 96.0703 35.4635 96.0703 34.6562C96.0833 33.8359 96.1484 33.0286 96.2656 32.2344ZM98.375 24.1289L97.8477 27.3125L95.0547 27.293C94.4948 27.306 93.9349 27.3841 93.375 27.5273C92.8281 27.6576 92.3203 27.8659 91.8516 28.1523C91.3828 28.4258 90.9922 28.7839 90.6797 29.2266C90.3802 29.6693 90.1914 30.2096 90.1133 30.8477C90.0482 31.3034 90.0938 31.7135 90.25 32.0781C90.4062 32.4297 90.6471 32.7096 90.9727 32.918C91.3112 33.1263 91.7148 33.237 92.1836 33.25C92.8477 33.263 93.4987 33.1393 94.1367 32.8789C94.7747 32.6055 95.3281 32.2214 95.7969 31.7266C96.2656 31.2318 96.5911 30.6589 96.7734 30.0078L97.9453 32.4492C97.6328 33.1784 97.2357 33.849 96.7539 34.4609C96.2852 35.0729 95.7448 35.6068 95.1328 36.0625C94.5208 36.5052 93.8503 36.8438 93.1211 37.0781C92.3919 37.3255 91.6107 37.4427 90.7773 37.4297C89.6185 37.4036 88.5508 37.1302 87.5742 36.6094C86.6107 36.0755 85.8424 35.3529 85.2695 34.4414C84.7096 33.5169 84.4557 32.4427 84.5078 31.2188C84.5599 29.8385 84.9049 28.6927 85.543 27.7812C86.181 26.8568 87.0013 26.1276 88.0039 25.5938C89.0195 25.0599 90.1198 24.6823 91.3047 24.4609C92.5026 24.2266 93.6875 24.1094 94.8594 24.1094L98.375 24.1289ZM117.34 31.043C117.444 30.418 117.288 29.9362 116.871 29.5977C116.454 29.2461 115.94 28.9792 115.328 28.7969C114.729 28.6146 114.208 28.4714 113.766 28.3672C112.984 28.1589 112.197 27.8984 111.402 27.5859C110.621 27.2604 109.911 26.8568 109.273 26.375C108.635 25.8932 108.128 25.3073 107.75 24.6172C107.372 23.9141 107.203 23.0872 107.242 22.1367C107.281 21.0039 107.568 20.0208 108.102 19.1875C108.648 18.3411 109.352 17.6445 110.211 17.0977C111.07 16.5378 112.008 16.1211 113.023 15.8477C114.039 15.5742 115.048 15.4505 116.051 15.4766C117.457 15.4896 118.759 15.75 119.957 16.2578C121.168 16.7656 122.145 17.5208 122.887 18.5234C123.642 19.526 124.02 20.776 124.02 22.2734L118.57 22.2539C118.583 21.681 118.492 21.1797 118.297 20.75C118.102 20.3203 117.802 19.9883 117.398 19.7539C116.995 19.5195 116.48 19.4023 115.855 19.4023C115.361 19.4023 114.866 19.5 114.371 19.6953C113.889 19.8776 113.473 20.151 113.121 20.5156C112.77 20.8802 112.548 21.3294 112.457 21.8633C112.379 22.306 112.444 22.6706 112.652 22.957C112.861 23.2435 113.141 23.4779 113.492 23.6602C113.844 23.8294 114.215 23.9727 114.605 24.0898C114.996 24.194 115.348 24.2786 115.66 24.3438C116.806 24.6432 117.926 25.0273 119.02 25.4961C120.113 25.9648 121.005 26.6224 121.695 27.4688C122.385 28.3021 122.704 29.4154 122.652 30.8086C122.613 31.9935 122.301 33.0091 121.715 33.8555C121.129 34.6888 120.374 35.3724 119.449 35.9062C118.538 36.4271 117.548 36.8047 116.48 37.0391C115.426 37.2865 114.391 37.4036 113.375 37.3906C111.956 37.3646 110.621 37.0781 109.371 36.5312C108.134 35.9844 107.132 35.1901 106.363 34.1484C105.595 33.0938 105.204 31.8047 105.191 30.2812L110.348 30.3008C110.361 30.9779 110.497 31.5508 110.758 32.0195C111.018 32.4883 111.389 32.8464 111.871 33.0938C112.366 33.3281 112.952 33.4453 113.629 33.4453C114.163 33.4583 114.69 33.3867 115.211 33.2305C115.745 33.0742 116.207 32.8203 116.598 32.4688C116.988 32.1042 117.236 31.6289 117.34 31.043ZM135.621 7L130.406 37H124.918L130.133 7H135.621ZM131.637 25.6914L130.211 25.7109C130.354 24.513 130.634 23.3021 131.051 22.0781C131.48 20.8542 132.06 19.7409 132.789 18.7383C133.518 17.7227 134.41 16.9154 135.465 16.3164C136.533 15.7044 137.77 15.418 139.176 15.457C140.361 15.4831 141.344 15.724 142.125 16.1797C142.919 16.6224 143.538 17.2279 143.98 17.9961C144.423 18.7513 144.716 19.6172 144.859 20.5938C145.003 21.5573 145.016 22.5729 144.898 23.6406L142.672 37H137.145L139.41 23.582C139.488 22.8919 139.469 22.2734 139.352 21.7266C139.247 21.1667 138.993 20.724 138.59 20.3984C138.199 20.0599 137.62 19.8841 136.852 19.8711C136.005 19.8451 135.276 19.9948 134.664 20.3203C134.065 20.6458 133.557 21.0951 133.141 21.668C132.724 22.2279 132.398 22.8594 132.164 23.5625C131.93 24.2526 131.754 24.9622 131.637 25.6914Z"
        fill="#969696"></path>
    <path fill-rule="evenodd" clip-rule="evenodd"
        d="M45.7302 22.8651C45.7302 35.4931 35.4931 45.7302 22.8651 45.7302C10.2371 45.7302 0 35.4931 0 22.8651C0 10.2371 10.2371 0 22.8651 0C35.4931 0 45.7302 10.2371 45.7302 22.8651ZM35.8453 18.0144C35.819 17.5625 35.6899 17.1231 35.4685 16.7316C35.2722 16.3282 34.9228 16.0136 34.5145 15.8522C34.0982 15.639 33.6369 15.5351 33.172 15.5497H15.7502L14.5018 19.3941H30.2867L27.7939 27.2522H12.013L10.7646 31.0966H28.2689C28.7905 31.0811 29.3062 30.9789 29.796 30.7941C29.8856 30.7417 29.9776 30.6893 30.071 30.636L30.071 30.636C30.4889 30.3977 30.9348 30.1435 31.323 29.8138C31.7868 29.4381 32.2058 29.0075 32.5714 28.531C32.8736 28.0641 33.1312 27.5683 33.3408 27.0505L35.653 19.5796C35.8633 19.0881 35.9301 18.5443 35.8453 18.0144ZM10.8437 21.5284H20.3325L19.1535 25.1165H9.56836L10.8437 21.5284Z"
        fill="#969696"></path>
</svg>