
<svg class="icon" xmlns="http://www.w3.org/2000/svg"
    xmlns:xlink="http://www.w3.org/1999/xlink" width="16px" height="17px">
    <path fill-rule="evenodd" fill="rgb(120, 199, 244)"
        d="M8.119,16.223 C3.830,16.223 0.353,12.747 0.353,8.458 C0.353,4.169 3.830,0.692 8.119,0.692 C12.408,0.692 15.885,4.169 15.885,8.458 C15.885,12.747 12.408,16.223 8.119,16.223 ZM8.119,2.245 C4.688,2.245 1.907,5.027 1.907,8.458 C1.907,11.889 4.688,14.670 8.119,14.670 C11.550,14.670 14.332,11.889 14.332,8.458 C14.332,5.027 11.550,2.245 8.119,2.245 ZM8.119,12.341 C7.690,12.341 7.343,11.993 7.343,11.564 L7.343,7.681 C7.343,7.252 7.690,6.905 8.119,6.905 C8.548,6.905 8.896,7.252 8.896,7.681 L8.896,11.564 C8.896,11.993 8.548,12.341 8.119,12.341 ZM8.671,5.887 L8.554,5.988 L8.414,6.058 L8.267,6.128 C8.012,6.177 7.750,6.095 7.568,5.910 C7.498,5.839 7.443,5.755 7.405,5.662 C7.360,5.565 7.339,5.458 7.343,5.351 C7.344,5.148 7.424,4.952 7.568,4.808 C7.643,4.737 7.730,4.679 7.824,4.637 C8.012,4.554 8.226,4.554 8.414,4.637 C8.509,4.679 8.595,4.737 8.671,4.808 C8.814,4.952 8.895,5.148 8.896,5.351 C8.896,5.456 8.874,5.559 8.834,5.654 C8.794,5.741 8.739,5.820 8.671,5.887 Z" />
</svg>