
<svg class="icon" xmlns="http://www.w3.org/2000/svg"
    xmlns:xlink="http://www.w3.org/1999/xlink" width="17px" height="16px">
    <path fill-rule="evenodd" fill="rgb(213, 76, 76)"
        d="M8.607,16.000 C4.318,16.000 0.842,12.523 0.842,8.234 C0.842,3.945 4.318,0.469 8.607,0.469 C12.896,0.469 16.373,3.945 16.373,8.234 C16.373,12.523 12.896,16.000 8.607,16.000 ZM8.607,2.022 C5.176,2.022 2.395,4.803 2.395,8.234 C2.395,11.665 5.176,14.447 8.607,14.447 C12.038,14.447 14.820,11.665 14.820,8.234 C14.820,4.803 12.038,2.022 8.607,2.022 ZM11.493,10.017 C11.795,10.322 11.793,10.813 11.488,11.115 C11.487,11.117 11.485,11.118 11.484,11.120 C11.179,11.422 10.688,11.420 10.386,11.115 L8.607,9.329 L6.829,11.115 C6.828,11.117 6.826,11.118 6.824,11.120 C6.520,11.422 6.028,11.420 5.726,11.115 C5.725,11.114 5.723,11.112 5.722,11.111 C5.420,10.806 5.422,10.315 5.726,10.013 L7.512,8.234 L5.726,6.456 C5.422,6.151 5.422,5.658 5.726,5.353 C6.031,5.049 6.524,5.049 6.829,5.353 L8.607,7.139 L10.386,5.353 C10.387,5.352 10.389,5.350 10.390,5.349 C10.695,5.047 11.186,5.049 11.488,5.353 C11.490,5.355 11.491,5.356 11.493,5.358 C11.795,5.662 11.793,6.154 11.488,6.456 L9.702,8.234 L11.488,10.013 C11.490,10.014 11.491,10.016 11.493,10.017 Z" />
</svg>