<svg width="110" height="39" viewBox="0 0 171 47" fill="none" xmlns="http://www.w3.org/2000/svg" class="null uk-svg"
    xmlns:xlink="http://www.w3.org/1999/xlink">
    <path
        d="M70.916 12.4075L65.9941 40.845H59.7832L64.7246 12.4075H70.916ZM79.3145 12.4075L78.4551 17.3489H55.623L56.502 12.4075H79.3145ZM85.4473 41.2356C83.9889 41.2096 82.6673 40.9361 81.4824 40.4153C80.3105 39.8944 79.321 39.1783 78.5137 38.2668C77.7064 37.3424 77.1139 36.2681 76.7363 35.0442C76.3587 33.8202 76.222 32.4856 76.3262 31.0403L76.4043 30.2786C76.5605 28.7681 76.9186 27.3489 77.4785 26.0208C78.0514 24.6926 78.8132 23.5208 79.7637 22.5051C80.7142 21.4765 81.834 20.6822 83.123 20.1223C84.4251 19.5494 85.877 19.2825 87.4785 19.3215C88.9499 19.3476 90.2129 19.6471 91.2676 20.22C92.3353 20.7799 93.1947 21.5416 93.8457 22.5051C94.5098 23.4687 94.9655 24.5624 95.2129 25.7864C95.4603 27.0103 95.5124 28.3059 95.3691 29.6731L95.0176 32.1731H78.4746L79.0996 28.2473L89.666 28.2668L89.7832 27.7395C89.8743 27.0754 89.8418 26.47 89.6855 25.9231C89.5293 25.3632 89.2363 24.914 88.8066 24.5754C88.377 24.2369 87.7975 24.0546 87.0684 24.0286C86.222 24.0155 85.5124 24.1978 84.9395 24.5754C84.3665 24.953 83.9043 25.4609 83.5527 26.0989C83.2012 26.7239 82.9277 27.4075 82.7324 28.1497C82.5501 28.8788 82.4134 29.5885 82.3223 30.2786L82.2441 31.0208C82.1921 31.6978 82.2116 32.3554 82.3027 32.9934C82.4069 33.6314 82.6022 34.2109 82.8887 34.7317C83.1882 35.2395 83.5918 35.6562 84.0996 35.9817C84.6204 36.2942 85.265 36.4635 86.0332 36.4895C87.0358 36.5155 87.9668 36.3202 88.8262 35.9036C89.6986 35.4869 90.4798 34.927 91.1699 34.2239L93.748 37.4856C93.1491 38.371 92.3939 39.0937 91.4824 39.6536C90.571 40.2004 89.5879 40.6041 88.5332 40.8645C87.4915 41.1249 86.4629 41.2486 85.4473 41.2356ZM110.428 19.7122L109.666 23.9895H97.498L98.2402 19.7122H110.428ZM101.932 14.4778H107.889L104.49 34.2629C104.438 34.7187 104.438 35.0963 104.49 35.3958C104.555 35.6952 104.699 35.9296 104.92 36.0989C105.154 36.2551 105.512 36.3463 105.994 36.3723C106.281 36.3853 106.561 36.3788 106.834 36.3528C107.107 36.3137 107.381 36.2812 107.654 36.2551L107.225 40.7278C106.691 40.8971 106.144 41.0208 105.584 41.0989C105.037 41.177 104.477 41.2161 103.904 41.2161C102.615 41.19 101.548 40.9231 100.701 40.4153C99.8548 39.8944 99.2428 39.1653 98.8652 38.2278C98.5007 37.2773 98.377 36.1705 98.4941 34.9075L101.932 14.4778ZM120.584 10.845L115.369 40.845H109.393L114.607 10.845H120.584ZM116.58 29.5364L115.174 29.595C115.304 28.3971 115.571 27.1926 115.975 25.9817C116.391 24.7577 116.958 23.6379 117.674 22.6223C118.39 21.5937 119.269 20.7734 120.311 20.1614C121.352 19.5494 122.57 19.2629 123.963 19.302C125.174 19.328 126.176 19.5754 126.971 20.0442C127.765 20.4999 128.383 21.1184 128.826 21.8997C129.282 22.6679 129.581 23.5468 129.725 24.5364C129.868 25.5129 129.881 26.5351 129.764 27.6028L127.557 40.845H121.561L123.807 27.5442C123.872 26.8801 123.852 26.2877 123.748 25.7668C123.657 25.246 123.423 24.8359 123.045 24.5364C122.68 24.2239 122.133 24.0546 121.404 24.0286C120.584 24.0155 119.887 24.1653 119.314 24.4778C118.755 24.7773 118.292 25.1939 117.928 25.7278C117.563 26.2616 117.277 26.8606 117.068 27.5247C116.86 28.1887 116.697 28.8593 116.58 29.5364ZM141.58 41.2356C140.122 41.2096 138.8 40.9361 137.615 40.4153C136.443 39.8944 135.454 39.1783 134.646 38.2668C133.839 37.3424 133.247 36.2681 132.869 35.0442C132.492 33.8202 132.355 32.4856 132.459 31.0403L132.537 30.2786C132.693 28.7681 133.051 27.3489 133.611 26.0208C134.184 24.6926 134.946 23.5208 135.896 22.5051C136.847 21.4765 137.967 20.6822 139.256 20.1223C140.558 19.5494 142.01 19.2825 143.611 19.3215C145.083 19.3476 146.346 19.6471 147.4 20.22C148.468 20.7799 149.327 21.5416 149.979 22.5051C150.643 23.4687 151.098 24.5624 151.346 25.7864C151.593 27.0103 151.645 28.3059 151.502 29.6731L151.15 32.1731H134.607L135.232 28.2473L145.799 28.2668L145.916 27.7395C146.007 27.0754 145.975 26.47 145.818 25.9231C145.662 25.3632 145.369 24.914 144.939 24.5754C144.51 24.2369 143.93 24.0546 143.201 24.0286C142.355 24.0155 141.645 24.1978 141.072 24.5754C140.499 24.953 140.037 25.4609 139.686 26.0989C139.334 26.7239 139.061 27.4075 138.865 28.1497C138.683 28.8788 138.546 29.5885 138.455 30.2786L138.377 31.0208C138.325 31.6978 138.344 32.3554 138.436 32.9934C138.54 33.6314 138.735 34.2109 139.021 34.7317C139.321 35.2395 139.725 35.6562 140.232 35.9817C140.753 36.2942 141.398 36.4635 142.166 36.4895C143.169 36.5155 144.1 36.3202 144.959 35.9036C145.831 35.4869 146.613 34.927 147.303 34.2239L149.881 37.4856C149.282 38.371 148.527 39.0937 147.615 39.6536C146.704 40.2004 145.721 40.6041 144.666 40.8645C143.624 41.1249 142.596 41.2486 141.58 41.2356ZM161.17 24.9661L158.416 40.845H152.459L156.131 19.7122H161.697L161.17 24.9661ZM168.064 19.5364L167.322 25.22C166.984 25.1679 166.652 25.1223 166.326 25.0833C166.001 25.0442 165.669 25.0247 165.33 25.0247C164.588 25.0116 163.917 25.1028 163.318 25.2981C162.732 25.4804 162.218 25.7603 161.775 26.1379C161.346 26.5155 160.988 26.9843 160.701 27.5442C160.415 28.0911 160.2 28.7161 160.057 29.4192L158.963 28.8723C159.106 27.8697 159.327 26.815 159.627 25.7083C159.926 24.5885 160.343 23.5403 160.877 22.5637C161.424 21.5741 162.12 20.7799 162.967 20.1809C163.826 19.5689 164.881 19.2629 166.131 19.2629C166.456 19.2629 166.775 19.289 167.088 19.3411C167.413 19.3931 167.739 19.4583 168.064 19.5364Z"
        fill="#969696"></path>
    <path fill-rule="evenodd" clip-rule="evenodd"
        d="M46.6096 23.3048C46.6096 36.1757 36.1757 46.6096 23.3048 46.6096C10.4339 46.6096 0 36.1757 0 23.3048C0 10.4339 10.4339 0 23.3048 0C36.1757 0 46.6096 10.4339 46.6096 23.3048ZM20.5381 20.0567V17.0544H12.6944V11.9853H34.6127V17.1258H26.769V20.0768C33.0094 20.4442 37.6193 21.8316 37.6193 23.4801C37.6193 25.1349 32.9733 26.5267 26.6958 26.8875V37.5452H20.5382V26.9072C21.4912 26.9785 22.4441 26.9785 23.4704 26.9785C23.4983 26.9785 23.5261 26.9785 23.554 26.9784C23.5264 26.9784 23.4989 26.9785 23.4714 26.9785C15.6277 26.9785 9.32344 25.4077 9.32344 23.4801C9.32344 21.7997 14.1136 20.3906 20.5381 20.0567ZM20.5381 20.6492C14.2435 21.0746 10.9453 22.7944 10.4973 23.4802C11.0104 24.1941 15.2621 25.2651 23.4723 25.2651C31.7558 25.2651 35.9342 24.1941 36.4473 23.4802C36.008 22.8689 32.8279 21.1584 26.769 20.6792L26.7691 24.6226C25.7428 24.694 24.6432 24.694 23.5436 24.6226C23.0107 24.6226 22.4778 24.6033 21.9655 24.5848H21.9654H21.9654C21.491 24.5677 21.0343 24.5512 20.6114 24.5512V22.8375H20.5381V20.6492Z"
        fill="#969696"></path>
</svg>