<svg width="120" height="42" viewBox="0 0 181 63" fill="none" xmlns="http://www.w3.org/2000/svg" class="null uk-svg"
    xmlns:xlink="http://www.w3.org/1999/xlink">
    <path
        d="M25.0686 21.9219L23.8772 26.9796C25.3665 27.2771 29.6856 28.7646 30.4302 25.9383C31.1749 22.9632 26.7069 22.2194 25.0686 21.9219ZM23.2814 29.5084L21.941 35.0123C23.7282 35.4586 28.9409 37.0949 29.6856 33.9711C30.5792 30.6985 25.0686 29.9547 23.2814 29.5084ZM30.8771 7.0464C18.6645 4.0713 6.30297 11.5091 3.17536 23.707C0.196685 35.9049 7.64335 48.2515 19.8559 51.3754C32.0685 54.3505 44.43 46.9128 47.5576 34.7148C50.5363 22.5169 43.0897 10.0215 30.8771 7.0464ZM35.494 25.9383C35.0472 28.1696 33.8557 29.2109 32.2175 29.5084C34.4515 30.6985 35.494 32.4835 34.4515 35.6074C33.1111 39.475 29.9835 39.7725 25.6644 39.0287L24.6218 43.1938L22.0899 42.5988L23.1325 38.4337C22.5368 38.285 21.941 38.1362 21.1964 37.9874L20.1538 42.1526L17.6219 41.5576L18.6645 37.3924L16.8773 36.9462L13.6007 36.2024L14.7922 33.3761L16.5794 33.8223C17.3241 33.9711 17.6219 33.5248 17.7709 33.2273L19.4091 26.6821H19.707C19.5581 26.5333 19.4091 26.5333 19.4091 26.5333L20.6006 21.7731C20.6006 21.1781 20.4517 20.5831 19.4091 20.2856C19.5581 20.2856 17.6219 19.8393 17.6219 19.8393L18.2177 17.1617L21.6432 18.0543L23.2814 18.5006L24.3239 14.3354L26.8558 14.9304L25.8133 18.9468C26.558 19.0956 27.3027 19.2443 27.8984 19.393L28.9409 15.3767L31.4728 15.9717L30.4302 20.1368C33.5579 21.3269 35.9408 22.9632 35.494 25.9383Z"
        fill="#969696"></path>
    <path
        d="M69.9104 24.3235C71.0828 24.3235 72.1574 24.5254 73.0366 25.03C73.9159 25.4338 74.6974 26.0393 75.2836 26.8468C75.8698 27.6543 76.2605 28.4617 76.5536 29.471C76.8467 30.4804 76.9444 31.5906 76.9444 32.8018C76.9444 34.6186 76.6513 36.3345 75.9675 37.9494C75.2836 39.5643 74.4044 40.9774 73.3297 42.1886C72.2551 43.3997 70.8874 44.3081 69.422 45.0147C67.8588 45.7212 66.2957 46.024 64.4396 46.024H63.2672C62.6811 46.024 61.9972 45.9231 61.3133 45.8221C60.5318 45.7212 59.7502 45.5193 58.9687 45.3175C58.1871 45.1156 57.4056 44.8128 56.624 44.4091L63.1695 15.8452L69.0312 14.9368L66.6865 25.03C67.175 24.8282 67.6635 24.6263 68.2496 24.5254C68.7381 24.4244 69.3243 24.3235 69.9104 24.3235ZM64.928 41.1792C65.8073 41.1792 66.6865 40.9774 67.4681 40.4727C68.2496 40.069 68.9335 39.4634 69.5197 38.6559C70.1058 37.9494 70.4966 37.041 70.8874 36.1326C71.1804 35.2242 71.3758 34.2149 71.3758 33.2056C71.3758 31.9944 71.1804 30.9851 70.7897 30.2785C70.3989 29.572 69.6173 29.2692 68.5427 29.2692C68.1519 29.2692 67.7612 29.3701 67.175 29.471C66.5888 29.572 66.1004 29.8748 65.6119 30.2785L63.0718 40.9774C63.2672 40.9774 63.3649 41.0783 63.4626 41.0783C63.5603 41.0783 63.658 41.0783 63.8534 41.1792H64.928Z"
        fill="#969696"></path>
    <path
        d="M83.0012 45.4178H77.335L82.122 24.8275H87.7882L83.0012 45.4178ZM85.7366 22.3042C84.9551 22.3042 84.2712 22.1024 83.5874 21.5977C82.9035 21.093 82.6104 20.3865 82.6104 19.3772C82.6104 18.8725 82.7081 18.2669 82.9035 17.8632C83.0989 17.3585 83.392 16.9548 83.7828 16.652C84.1735 16.3492 84.5643 16.0464 85.0528 15.8445C85.5412 15.6427 86.0297 15.5417 86.5182 15.5417C87.2997 15.5417 87.9836 15.7436 88.6675 16.2483C89.2536 16.7529 89.6444 17.4595 89.6444 18.4688C89.6444 18.9734 89.5467 19.579 89.3513 19.9828C89.1559 20.4874 88.8628 20.8912 88.4721 21.194C88.0813 21.4968 87.6905 21.7996 87.202 22.0014C86.8113 22.2033 86.3228 22.3042 85.7366 22.3042Z"
        fill="#969696"></path>
    <path
        d="M92.7717 19.6801L98.6333 18.7717L97.1679 24.8277H103.518L102.346 29.5715H96.0933L94.4325 36.8387C94.2371 37.4443 94.2371 38.0499 94.1394 38.5545C94.1394 39.0592 94.1394 39.5639 94.3348 39.8667C94.5302 40.2704 94.7256 40.5732 95.1163 40.775C95.5071 40.9769 96.0933 41.0778 96.7771 41.0778C97.3633 41.0778 97.9495 40.9769 98.5356 40.876C99.1218 40.775 99.708 40.5732 100.294 40.3713L100.685 44.8123C99.9033 45.1151 99.1218 45.317 98.2425 45.5189C97.3633 45.7207 96.2887 45.8217 95.1163 45.8217C93.3578 45.8217 91.9901 45.5189 91.0132 45.0142C90.0362 44.5095 89.3524 43.7021 88.9616 42.7937C88.5708 41.8853 88.3754 40.775 88.4731 39.5638C88.5708 38.3526 88.6685 37.1415 88.9616 35.7284L92.7717 19.6801Z"
        fill="#969696"></path>
    <path
        d="M103.225 37.1426C103.225 35.3258 103.518 33.7109 104.104 32.096C104.69 30.4811 105.472 29.1689 106.546 27.9577C107.621 26.7465 108.891 25.8382 110.356 25.1316C111.822 24.4251 113.482 24.1223 115.339 24.1223C116.511 24.1223 117.488 24.2232 118.367 24.4251C119.246 24.627 120.126 24.9298 120.81 25.3335L118.856 29.8755L117.293 29.2699C116.706 29.068 116.12 28.9671 115.339 28.9671C113.482 28.9671 112.017 29.6736 110.845 30.9857C109.77 32.2978 109.184 34.1146 109.184 36.3352C109.184 37.6473 109.477 38.7575 110.063 39.565C110.649 40.3724 111.626 40.7762 113.092 40.7762C113.873 40.7762 114.557 40.6752 115.241 40.5743C115.925 40.3724 116.511 40.1706 117.097 39.9687L117.488 44.6116C116.804 44.9144 116.023 45.1163 115.143 45.4191C114.264 45.621 113.287 45.7219 112.017 45.7219C110.454 45.7219 109.086 45.52 108.012 45.0153C106.937 44.5107 106.058 43.9051 105.276 43.0976C104.592 42.2902 104.006 41.3818 103.713 40.2715C103.42 39.4641 103.225 38.3538 103.225 37.1426Z"
        fill="#969696"></path>
    <path
        d="M128.234 45.9237C126.866 45.9237 125.693 45.7219 124.717 45.3181C123.74 44.9144 122.958 44.3088 122.274 43.6023C121.59 42.8958 121.102 41.9874 120.809 40.8771C120.516 39.8678 120.32 38.6566 120.32 37.4454C120.32 35.8305 120.613 34.3165 121.102 32.7016C121.59 31.0867 122.274 29.6736 123.251 28.4624C124.228 27.2512 125.4 26.1409 126.768 25.3335C128.136 24.526 129.797 24.1223 131.555 24.1223C132.825 24.1223 133.997 24.3242 135.072 24.7279C136.049 25.1316 136.928 25.7372 137.514 26.4438C138.198 27.2512 138.687 28.0587 138.98 29.1689C139.273 30.1783 139.468 31.3895 139.468 32.6006C139.468 34.2156 139.273 35.7296 138.784 37.3445C138.296 38.8585 137.612 40.3724 136.635 41.5836C135.658 42.7948 134.486 43.9051 133.118 44.7125C131.653 45.52 130.09 45.9237 128.234 45.9237ZM131.067 29.1689C130.187 29.1689 129.504 29.3708 128.82 29.8755C128.234 30.3801 127.647 30.9857 127.257 31.7932C126.866 32.6007 126.475 33.4081 126.28 34.3165C126.084 35.2249 125.987 36.0324 125.987 36.8398C125.987 38.1519 126.182 39.1613 126.573 39.8678C126.964 40.5743 127.745 40.978 128.82 40.978C129.699 40.978 130.383 40.7762 131.067 40.2715C131.653 39.7669 132.239 39.1613 132.63 38.3538C133.021 37.6473 133.411 36.7389 133.607 35.8305C133.802 34.9221 133.9 34.1146 133.9 33.3072C133.9 31.9951 133.704 30.9857 133.314 30.2792C132.825 29.5727 132.044 29.1689 131.067 29.1689Z"
        fill="#969696"></path>
    <path
        d="M145.624 45.4178H139.958L144.745 24.8275H150.411L145.624 45.4178ZM148.262 22.3042C147.48 22.3042 146.797 22.1024 146.113 21.5977C145.527 21.093 145.136 20.3865 145.136 19.3772C145.136 18.8725 145.233 18.2669 145.429 17.8632C145.624 17.3585 145.917 16.9548 146.308 16.652C146.699 16.3492 147.09 16.0464 147.578 15.8445C148.067 15.6427 148.555 15.5417 149.044 15.5417C149.825 15.5417 150.509 15.7436 151.193 16.2483C151.779 16.7529 152.17 17.4595 152.17 18.4688C152.17 18.9734 152.072 19.579 151.877 19.9828C151.681 20.4874 151.388 20.8912 150.997 21.194C150.607 21.4968 150.216 21.7996 149.727 22.0014C149.337 22.2033 148.848 22.3042 148.262 22.3042Z"
        fill="#969696"></path>
    <path
        d="M154.416 25.7368C154.807 25.6359 155.295 25.434 155.881 25.3331C156.37 25.1312 156.956 25.0303 157.64 24.8284C158.324 24.7275 159.008 24.5256 159.789 24.4247C160.571 24.3237 161.45 24.3237 162.525 24.3237C165.455 24.3237 167.507 25.2321 168.679 26.948C169.852 28.7648 170.047 31.1872 169.265 34.2151L166.725 45.3177H161.059L163.599 34.417C163.795 33.7105 163.892 33.1049 163.99 32.3983C164.088 31.7927 164.088 31.1872 163.99 30.6825C163.892 30.1778 163.697 29.7741 163.306 29.4713C162.915 29.1685 162.329 29.0676 161.645 29.0676C160.864 29.0676 160.18 29.1685 159.398 29.2694L155.686 45.2168H150.02C149.824 45.4186 154.416 25.7368 154.416 25.7368Z"
        fill="#969696"></path>
</svg>